/* XPM */
static char * bottom_left_active_xpm[] = {
"3 4 3 1",
".	c #41475B",
"+	c #A4A4B4",
"@	c #656781",
".+@",
".+@",
".++",
"..."};
