/* XPM */
static char * bottom_right_inactive_xpm[] = {
"3 4 3 1",
"+	c #606060",
"@	c #A1A1A1",
"#	c #363636",
"+@#",
"+@#",
"@@#",
"###"};
