/* XPM */
static char * close_active_xpm[] = {
"27 24 120 2",
"  	c None",
". 	c #A4A4B4",
"+ 	c #757793",
"@ 	c #686C88",
"# 	c #525A76",
"$ 	c #485068",
"% 	c #41475B",
"& 	c #F2F2F5",
"* 	c #F3F2F5",
"= 	c #F2F2F4",
"- 	c #F2F1F5",
"; 	c #F3F1F4",
"> 	c #EAEAEF",
", 	c #EAE8E9",
"' 	c #E9E8EA",
") 	c #EAE7EA",
"! 	c #EAE8EA",
"~ 	c #EAEAEE",
"{ 	c #E1E3E8",
"] 	c #E7E5E7",
"^ 	c #E7E5E8",
"/ 	c #E7E6E7",
"( 	c #E8E5E7",
"_ 	c #E8E5E8",
": 	c #E2E3E8",
"< 	c #D9DBE1",
"[ 	c #E5E3E4",
"} 	c #E5E3E5",
"| 	c #7E7E8D",
"1 	c #7A7A89",
"2 	c #7D7D8C",
"3 	c #E4E3E4",
"4 	c #E5E4E5",
"5 	c #D9DBE2",
"6 	c #D2D4DB",
"7 	c #E2E0E2",
"8 	c #E3E1E2",
"9 	c #E2E1E2",
"0 	c #797989",
"a 	c #59596D",
"b 	c #747485",
"c 	c #E3E1E3",
"d 	c #747585",
"e 	c #58596D",
"f 	c #787888",
"g 	c #E2E1E3",
"h 	c #CACCD5",
"i 	c #E0DEE0",
"j 	c #DFDEE0",
"k 	c #747484",
"l 	c #606173",
"m 	c #737383",
"n 	c #C1C5CE",
"o 	c #DDDCDD",
"p 	c #DDDCDE",
"q 	c #606073",
"r 	c #505166",
"s 	c #5F6073",
"t 	c #DEDCDE",
"u 	c #DEDCDD",
"v 	c #656781",
"w 	c #BABDC8",
"x 	c #DBDADA",
"y 	c #DBD9DB",
"z 	c #DAD9DB",
"A 	c #DADADB",
"B 	c #727383",
"C 	c #57586C",
"D 	c #5F6072",
"E 	c #727282",
"F 	c #DBDADB",
"G 	c #B1B5C2",
"H 	c #D9D7D9",
"I 	c #D8D7D8",
"J 	c #767686",
"K 	c #58586C",
"L 	c #717282",
"M 	c #717182",
"N 	c #757685",
"O 	c #D8D6D9",
"P 	c #D9D7D8",
"Q 	c #D8D7D9",
"R 	c #B1B6C2",
"S 	c #A8AEBB",
"T 	c #D6D5D6",
"U 	c #D6D4D6",
"V 	c #D5D5D6",
"W 	c #787987",
"X 	c #757585",
"Y 	c #D6D5D5",
"Z 	c #D6D4D5",
"` 	c #757584",
" .	c #787988",
"..	c #A9AEBB",
"+.	c #59607B",
"@.	c #A1A6B5",
"#.	c #D3D2D3",
"$.	c #D3D2D4",
"%.	c #D4D2D4",
"&.	c #D4D2D3",
"*.	c #A1A6B6",
"=.	c #686F86",
"-.	c #989FAF",
";.	c #D0CFD0",
">.	c #D1D0D1",
",.	c #D1CFD0",
"'.	c #D0D0D0",
").	c #D1CFD1",
"!.	c #D0D0D1",
"~.	c #D1D0D0",
"{.	c #999EAE",
"].	c #737A91",
"^.	c #9097A8",
"/.	c #9197A8",
"(.	c #9097A9",
"_.	c #9198A8",
":.	c #9098A8",
"<.	c #7B8193",
"[.	c #75788D",
"}.	c #9498A4",
". . . . . . . . . . . . . . . . . . . . . . . . . . . ",
"+ + + + + + + + + + + + + + + + + + + + + + + + + + + ",
"+ + + + + + + + + + + + + + + + + + + + + + + + + + + ",
"+ + + @ # # # # # # # # # # # # # # # # # # # @ + + + ",
"+ + + # $ % % % % % % % % % % % % % % % % % $ # + + + ",
"+ + + # % & * & & & & = & - & & - * & ; * & % # + + + ",
"+ + + # % > , , ' ) ! ! ! , ! ! ! ! ! , ' ~ % # + + + ",
"+ + + # % { ] ^ ] / / ] ( ] ] ] ( _ / ] ] : % # + + + ",
"+ + + # % < [ } } } | 1 } [ } 1 2 3 4 } } 5 % # + + + ",
"+ + + # % 6 7 8 7 9 0 a b c d e f c g 7 7 6 % # + + + ",
"+ + + # % h i i i i j k e l e m j i i i i h % # + + + ",
"+ + + # % n o o o p o o q r s o p o t u o n % # + + + ",
"v v v # % w x y z y A B C D C E F y y y z w % # v v v ",
"v v v # % G H I I I J K L I M K N O I P Q R % # v v v ",
"v v v # % S T U T V W X Y Z U `  .T T U V ..% # v v v ",
"v v v +.% @.#.#.#.$.%.#.$.#.#.%.#.&.#.&.#.*.% +.v v v ",
"v v v =.% -.;.>.,.'.).,.!.>.).).>.).~.>.).{.% =.v v v ",
"v v v ].% ^./.^.(._.^./.:.(._.:.(._.^.^.:./.% ].v v v ",
"v v v <.$ % % % % % % % % % % % % % % % % % $ <.v v v ",
"v v v [.}.}.}.}.}.}.}.}.}.}.}.}.}.}.}.}.}.}.}.[.v v v ",
"v v v v v v v v v v v v v v v v v v v v v v v v v v v ",
"v v v v v v v v v v v v v v v v v v v v v v v v v v v ",
"v v v v v v v v v v v v v v v v v v v v v v v v v v v ",
"v v v v v v v v v v v v v v v v v v v v v v v v v v v "};
