/* XPM */
static char * close_prelight_xpm[] = {
"27 24 117 2",
"  	c None",
". 	c #A4A4B4",
"+ 	c #757793",
"@ 	c #686C88",
"# 	c #525A76",
"$ 	c #485068",
"% 	c #41475B",
"& 	c #F2F2F5",
"* 	c #F3F2F5",
"= 	c #F2F2F4",
"- 	c #F2F1F5",
"; 	c #F3F1F4",
"> 	c #EAEAEF",
", 	c #EAE8E9",
"' 	c #E9E8EA",
") 	c #EAE7EA",
"! 	c #EAE8EA",
"~ 	c #EAEAEE",
"{ 	c #E1E3E8",
"] 	c #E7E5E7",
"^ 	c #E7E5E8",
"/ 	c #E7E6E7",
"( 	c #E8E5E7",
"_ 	c #E8E5E8",
": 	c #E2E3E8",
"< 	c #D9DBE1",
"[ 	c #E5E3E4",
"} 	c #E5E3E5",
"| 	c #F67A73",
"1 	c #F7756E",
"2 	c #F77972",
"3 	c #E4E3E4",
"4 	c #E5E4E5",
"5 	c #D9DBE2",
"6 	c #D2D4DB",
"7 	c #E2E0E2",
"8 	c #E3E1E2",
"9 	c #E2E1E2",
"0 	c #F7756D",
"a 	c #FD544A",
"b 	c #F77068",
"c 	c #E3E1E3",
"d 	c #FD5349",
"e 	c #F6746D",
"f 	c #E2E1E3",
"g 	c #CACCD5",
"h 	c #E0DEE0",
"i 	c #DFDEE0",
"j 	c #F76F67",
"k 	c #FB5B52",
"l 	c #C1C5CE",
"m 	c #DDDCDD",
"n 	c #DDDCDE",
"o 	c #FB5B51",
"p 	c #FE4B40",
"q 	c #FB5A51",
"r 	c #DEDCDE",
"s 	c #DEDCDD",
"t 	c #656781",
"u 	c #BABDC8",
"v 	c #DBDADA",
"w 	c #DBD9DB",
"x 	c #DAD9DB",
"y 	c #DADADB",
"z 	c #F56E66",
"A 	c #FD5248",
"B 	c #FC5248",
"C 	c #F66E66",
"D 	c #DBDADB",
"E 	c #B1B5C2",
"F 	c #D9D7D9",
"G 	c #D8D7D8",
"H 	c #F4726A",
"I 	c #FC5349",
"J 	c #F56D65",
"K 	c #FC5348",
"L 	c #F4716A",
"M 	c #D8D6D9",
"N 	c #D9D7D8",
"O 	c #D8D7D9",
"P 	c #B1B6C2",
"Q 	c #A8AEBB",
"R 	c #D6D5D6",
"S 	c #D6D4D6",
"T 	c #D5D5D6",
"U 	c #F2746D",
"V 	c #F37169",
"W 	c #D6D5D5",
"X 	c #D6D4D5",
"Y 	c #F2756D",
"Z 	c #A9AEBB",
"` 	c #59607B",
" .	c #A1A6B5",
"..	c #D3D2D3",
"+.	c #D3D2D4",
"@.	c #D4D2D4",
"#.	c #D4D2D3",
"$.	c #A1A6B6",
"%.	c #686F86",
"&.	c #989FAF",
"*.	c #D0CFD0",
"=.	c #D1D0D1",
"-.	c #D1CFD0",
";.	c #D0D0D0",
">.	c #D1CFD1",
",.	c #D0D0D1",
"'.	c #D1D0D0",
").	c #999EAE",
"!.	c #737A91",
"~.	c #9097A8",
"{.	c #9197A8",
"].	c #9097A9",
"^.	c #9198A8",
"/.	c #9098A8",
"(.	c #7B8193",
"_.	c #75788D",
":.	c #9498A4",
". . . . . . . . . . . . . . . . . . . . . . . . . . . ",
"+ + + + + + + + + + + + + + + + + + + + + + + + + + + ",
"+ + + + + + + + + + + + + + + + + + + + + + + + + + + ",
"+ + + @ # # # # # # # # # # # # # # # # # # # @ + + + ",
"+ + + # $ % % % % % % % % % % % % % % % % % $ # + + + ",
"+ + + # % & * & & & & = & - & & - * & ; * & % # + + + ",
"+ + + # % > , , ' ) ! ! ! , ! ! ! ! ! , ' ~ % # + + + ",
"+ + + # % { ] ^ ] / / ] ( ] ] ] ( _ / ] ] : % # + + + ",
"+ + + # % < [ } } } | 1 } [ } 1 2 3 4 } } 5 % # + + + ",
"+ + + # % 6 7 8 7 9 0 a b c b d e c f 7 7 6 % # + + + ",
"+ + + # % g h h h h i j d k d j i h h h h g % # + + + ",
"+ + + # % l m m m n m m o p q m n m r s m l % # + + + ",
"t t t # % u v w x w y z A q B C D w w w x u % # t t t ",
"t t t # % E F G G G H I J G J K L M G N O P % # t t t ",
"t t t # % Q R S R T U V W X S V Y R R S T Z % # t t t ",
"t t t ` %  .......+.@...+.....@...#...#...$.% ` t t t ",
"t t t %.% &.*.=.-.;.>.-.,.=.>.>.=.>.'.=.>.).% %.t t t ",
"t t t !.% ~.{.~.].^.~.{./.].^./.].^.~.~./.{.% !.t t t ",
"t t t (.$ % % % % % % % % % % % % % % % % % $ (.t t t ",
"t t t _.:.:.:.:.:.:.:.:.:.:.:.:.:.:.:.:.:.:.:._.t t t ",
"t t t t t t t t t t t t t t t t t t t t t t t t t t t ",
"t t t t t t t t t t t t t t t t t t t t t t t t t t t ",
"t t t t t t t t t t t t t t t t t t t t t t t t t t t ",
"t t t t t t t t t t t t t t t t t t t t t t t t t t t "};
