/* XPM */
static char * close_inactive_xpm[] = {
"27 24 60 1",
" 	c None",
".	c #A1A1A1",
"+	c #737373",
"@	c #6D6D6D",
"#	c #646464",
"$	c #585858",
"%	c #4E4E4E",
"&	c #F4F4F4",
"*	c #F3F3F3",
"=	c #EDEDED",
"-	c #E9E9E9",
";	c #ECECEC",
">	c #E5E5E5",
",	c #E6E6E6",
"'	c #E7E7E7",
")	c #DDDDDD",
"!	c #E4E4E4",
"~	c #858585",
"{	c #818181",
"]	c #848484",
"^	c #DEDEDE",
"/	c #D7D7D7",
"(	c #E1E1E1",
"_	c #E2E2E2",
":	c #636363",
"<	c #7C7C7C",
"[	c #626262",
"}	c #808080",
"|	c #D0D0D0",
"1	c #DFDFDF",
"2	c #6A6A6A",
"3	c #7B7B7B",
"4	c #C8C8C8",
"5	c #696969",
"6	c #5B5B5B",
"7	c #606060",
"8	c #C1C1C1",
"9	c #DBDBDB",
"0	c #DADADA",
"a	c #7A7A7A",
"b	c #616161",
"c	c #BABABA",
"d	c #D8D8D8",
"e	c #7E7E7E",
"f	c #797979",
"g	c #7D7D7D",
"h	c #B2B2B2",
"i	c #D6D6D6",
"j	c #D5D5D5",
"k	c #ABABAB",
"l	c #D3D3D3",
"m	c #ACACAC",
"n	c #777777",
"o	c #A4A4A4",
"p	c #D1D1D1",
"q	c #828282",
"r	c #9C9C9C",
"s	c #9D9D9D",
"t	c #878787",
"u	c #747474",
"...........................",
"+++++++++++++++++++++++++++",
"+++++++++++++++++++++++++++",
"+++@###################@+++",
"+++#$%%%%%%%%%%%%%%%%%$#+++",
"+++#%&&&&&&*&*&&*&&*&&%#+++",
"+++#%=---------------;%#+++",
"+++#%>,','',',,,''',,>%#+++",
"+++#%)!!!!~{!!!{]!>!!^%#+++",
"+++#%/(_(_{:<_<[}__((/%#+++",
"+++#%|11111<[2[311111|%#+++",
"+++#%4))))))565))))))4%#+++",
"777#%890009ab5[a900008%#777",
"777#%cdddde[fdf[gddddc%#777",
"777#%hijii}<ijjg}iijih%#777",
"7772%klllllllllllllllm%2777",
"777n%o|p||||pp||p|pp|o%n777",
"777q%rsrssrsrssrssrrrs%q777",
"777t$%%%%%%%%%%%%%%%%%$t777",
"777urrrrrrrrrrrrrrrrrrru777",
"777777777777777777777777777",
"777777777777777777777777777",
"777777777777777777777777777",
"777777777777777777777777777"};
