/* XPM */
static char * close_pressed_xpm[] = {
"27 24 107 2",
"  	c None",
". 	c #A4A4B4",
"+ 	c #757793",
"@ 	c #686C88",
"# 	c #525A76",
"$ 	c #485068",
"% 	c #41475B",
"& 	c #969499",
"* 	c #BDBCC3",
"= 	c #BEBDC4",
"- 	c #C0BEC6",
"; 	c #C0BFC6",
"> 	c #C2C0C7",
", 	c #C2C1C7",
"' 	c #C3C2C7",
") 	c #C4C2C8",
"! 	c #C3C2C8",
"~ 	c #C3C1C7",
"{ 	c #C1C1C7",
"] 	c #BFBEC5",
"^ 	c #BEBDC5",
"/ 	c #C0BEC5",
"( 	c #C1C0C7",
"_ 	c #C4C3C8",
": 	c #C5C3C9",
"< 	c #C6C4C9",
"[ 	c #C6C4CA",
"} 	c #C6C3CA",
"| 	c #C5C3C8",
"1 	c #C1BFC6",
"2 	c #C0BFC5",
"3 	c #C1C0C6",
"4 	c #C2C2C7",
"5 	c #C6C5CA",
"6 	c #C7C5CA",
"7 	c #C8C5CA",
"8 	c #C7C6CB",
"9 	c #C4C2C9",
"0 	c #BFBFC5",
"a 	c #C3C1C8",
"b 	c #C7C5CB",
"c 	c #ED716B",
"d 	c #F06E67",
"e 	c #C9C7CC",
"f 	c #CAC7CD",
"g 	c #EF6E67",
"h 	c #EE706A",
"i 	c #C3C0C7",
"j 	c #C1C0C5",
"k 	c #C5C4CA",
"l 	c #C9C6CC",
"m 	c #FB5248",
"n 	c #F26A63",
"o 	c #CCC9CD",
"p 	c #F06D67",
"q 	c #C9C6CB",
"r 	c #C4C1C8",
"s 	c #C8C6CB",
"t 	c #CAC8CC",
"u 	c #FC5248",
"v 	c #F95950",
"w 	c #CBC9CE",
"x 	c #C6C5C9",
"y 	c #C5C2C8",
"z 	c #656781",
"A 	c #CAC7CC",
"B 	c #CCC8CD",
"C 	c #CDCACF",
"D 	c #CFCCCF",
"E 	c #FE4B40",
"F 	c #F9594F",
"G 	c #CECBCF",
"H 	c #CBC8CD",
"I 	c #CAC8CD",
"J 	c #CCC9CE",
"K 	c #F36B64",
"L 	c #FA5950",
"M 	c #FC5247",
"N 	c #F36B63",
"O 	c #F16F68",
"P 	c #D4CFD3",
"Q 	c #F16E67",
"R 	c #C5C4C9",
"S 	c #59607B",
"T 	c #F0726B",
"U 	c #F26F68",
"V 	c #D2CED2",
"W 	c #D3CFD2",
"X 	c #D1CFD2",
"Y 	c #CCCACE",
"Z 	c #C5C3CA",
"` 	c #686F86",
" .	c #C6C3C9",
"..	c #C8C6CA",
"+.	c #CDCBCF",
"@.	c #CFCCD0",
"#.	c #D0CDD1",
"$.	c #D1CDD1",
"%.	c #CDCACE",
"&.	c #CBC9CD",
"*.	c #737A91",
"=.	c #C7C4CB",
"-.	c #CECBD0",
";.	c #C7C4CA",
">.	c #7B8193",
",.	c #75788D",
"'.	c #9498A4",
". . . . . . . . . . . . . . . . . . . . . . . . . . . ",
"+ + + + + + + + + + + + + + + + + + + + + + + + + + + ",
"+ + + + + + + + + + + + + + + + + + + + + + + + + + + ",
"+ + + @ # # # # # # # # # # # # # # # # # # # @ + + + ",
"+ + + # $ % % % % % % % % % % % % % % % % % $ # + + + ",
"+ + + # % & & & & & & & & & & & & & & & & & % # + + + ",
"+ + + # % * = - ; > , ' ) ! ! ~ ~ { ; ] = * % # + + + ",
"+ + + # % ^ / ( ~ ! _ : < [ } | ) ) > 1 ] = % # + + + ",
"+ + + # % 2 3 4 ) [ 5 6 7 8 8 6 [ : 9 ~ 1 0 % # + + + ",
"+ + + # % 3 a 9 < b c d e f e g h 6 : _ i j % # + + + ",
"+ + + # % , ! k 6 l d m n o n m p q 6 < r > % # + + + ",
"+ + + # % a : 6 s t o n u v u n w f s x y , % # + + + ",
"z z z # % ) : b A B C D v E F G C H e b : a % # z z z ",
"z z z # % ! [ s I J G K u L M N G J f 8 [ ) % # z z z ",
"z z z # % ! [ s t C O u K P K u Q J A s R ! % # z z z ",
"z z z S % ) [ s I J T U V W X O T Y A b Z a % S z z z ",
"z z z ` % )  ...A J +.@.#.$.#.@.%.&.e 6 : a % ` z z z ",
"z z z *.% 4 : =.q I o +.D -.-.G J t s ;.: , % *.z z z ",
"z z z >.$ % % % % % % % % % % % % % % % % % $ >.z z z ",
"z z z ,.'.'.'.'.'.'.'.'.'.'.'.'.'.'.'.'.'.'.'.,.z z z ",
"z z z z z z z z z z z z z z z z z z z z z z z z z z z ",
"z z z z z z z z z z z z z z z z z z z z z z z z z z z ",
"z z z z z z z z z z z z z z z z z z z z z z z z z z z ",
"z z z z z z z z z z z z z z z z z z z z z z z z z z z "};
