/* XPM */
static char * hide_pressed_xpm[] = {
"27 24 94 2",
"  	c None",
". 	c #A4A4B4",
"+ 	c #757793",
"@ 	c #686C88",
"# 	c #525A76",
"$ 	c #485068",
"% 	c #41475B",
"& 	c #969499",
"* 	c #BDBCC3",
"= 	c #BEBDC4",
"- 	c #C0BEC6",
"; 	c #C0BFC6",
"> 	c #C2C0C7",
", 	c #C2C1C7",
"' 	c #C3C2C7",
") 	c #C4C2C8",
"! 	c #C3C2C8",
"~ 	c #C3C1C7",
"{ 	c #C1C1C7",
"] 	c #BFBEC5",
"^ 	c #BEBDC5",
"/ 	c #C0BEC5",
"( 	c #C1C0C7",
"_ 	c #C4C3C8",
": 	c #C5C3C9",
"< 	c #C6C4C9",
"[ 	c #C6C4CA",
"} 	c #C6C3CA",
"| 	c #C5C3C8",
"1 	c #C1BFC6",
"2 	c #C0BFC5",
"3 	c #C1C0C6",
"4 	c #C2C2C7",
"5 	c #C6C5CA",
"6 	c #C7C5CA",
"7 	c #C8C5CA",
"8 	c #C7C6CB",
"9 	c #C4C2C9",
"0 	c #BFBFC5",
"a 	c #C3C1C8",
"b 	c #C7C5CB",
"c 	c #C8C6CB",
"d 	c #CAC7CC",
"e 	c #C9C7CC",
"f 	c #CAC7CD",
"g 	c #C3C0C7",
"h 	c #C1C0C5",
"i 	c #C5C4CA",
"j 	c #C9C6CC",
"k 	c #CAC8CD",
"l 	c #CBC8CE",
"m 	c #CCC9CE",
"n 	c #CCC9CD",
"o 	c #CBC8CD",
"p 	c #C9C6CB",
"q 	c #C4C1C8",
"r 	c #CAC8CC",
"s 	c #CDCACE",
"t 	c #CECBCF",
"u 	c #CECACF",
"v 	c #CBC9CE",
"w 	c #C6C5C9",
"x 	c #C5C2C8",
"y 	c #656781",
"z 	c #CCC8CD",
"A 	c #CDCACF",
"B 	c #CFCCCF",
"C 	c #CFCCD0",
"D 	c #D0CDD0",
"E 	c #D0CDD1",
"F 	c #D1CED2",
"G 	c #D2CED2",
"H 	c #D2CED1",
"I 	c #40B2F0",
"J 	c #24AEF7",
"K 	c #23AEF7",
"L 	c #3FB2F0",
"M 	c #C5C4C9",
"N 	c #59607B",
"O 	c #CCCACE",
"P 	c #C5C3CA",
"Q 	c #686F86",
"R 	c #C6C3C9",
"S 	c #C8C6CA",
"T 	c #CDCBCF",
"U 	c #D1CDD1",
"V 	c #CBC9CD",
"W 	c #737A91",
"X 	c #C7C4CB",
"Y 	c #CECBD0",
"Z 	c #C7C4CA",
"` 	c #7B8193",
" .	c #75788D",
"..	c #9498A4",
". . . . . . . . . . . . . . . . . . . . . . . . . . . ",
"+ + + + + + + + + + + + + + + + + + + + + + + + + + + ",
"+ + + + + + + + + + + + + + + + + + + + + + + + + + + ",
"+ + + @ # # # # # # # # # # # # # # # # # # # @ + + + ",
"+ + + # $ % % % % % % % % % % % % % % % % % $ # + + + ",
"+ + + # % & & & & & & & & & & & & & & & & & % # + + + ",
"+ + + # % * = - ; > , ' ) ! ! ~ ~ { ; ] = * % # + + + ",
"+ + + # % ^ / ( ~ ! _ : < [ } | ) ) > 1 ] = % # + + + ",
"+ + + # % 2 3 4 ) [ 5 6 7 8 8 6 [ : 9 ~ 1 0 % # + + + ",
"+ + + # % 3 a 9 < b c d e f e e c 6 : _ g h % # + + + ",
"+ + + # % , ! i 6 j k l m n n o f p 6 < q > % # + + + ",
"+ + + # % a : 6 c r n s t t u s v f c w x , % # + + + ",
"y y y # % ) : b d z A B C D D t A o e b : a % # y y y ",
"y y y # % ! [ c k m t E F G H D t m f 8 [ ) % # y y y ",
"y y y # % ! [ c r A I J K K K K L m d c M ! % # y y y ",
"y y y N % ) [ c k m L J K K K K L O d b P a % N y y y ",
"y y y Q % ) R S d m T C E U E C s V e 6 : a % Q y y y ",
"y y y W % 4 : X p k n T B Y Y t m r c Z : , % W y y y ",
"y y y ` $ % % % % % % % % % % % % % % % % % $ ` y y y ",
"y y y  ....................................... .y y y ",
"y y y y y y y y y y y y y y y y y y y y y y y y y y y ",
"y y y y y y y y y y y y y y y y y y y y y y y y y y y ",
"y y y y y y y y y y y y y y y y y y y y y y y y y y y ",
"y y y y y y y y y y y y y y y y y y y y y y y y y y y "};
