/* XPM */
static char * hide_active_xpm[] = {
"27 24 104 2",
"  	c None",
". 	c #A4A4B4",
"+ 	c #757793",
"@ 	c #686C88",
"# 	c #525A76",
"$ 	c #485068",
"% 	c #41475B",
"& 	c #F2F2F5",
"* 	c #F3F2F5",
"= 	c #F2F2F4",
"- 	c #F2F1F5",
"; 	c #F3F1F4",
"> 	c #EAEAEF",
", 	c #EAE8E9",
"' 	c #E9E8EA",
") 	c #EAE7EA",
"! 	c #EAE8EA",
"~ 	c #EAEAEE",
"{ 	c #E1E3E8",
"] 	c #E7E5E7",
"^ 	c #E7E5E8",
"/ 	c #E7E6E7",
"( 	c #E8E5E7",
"_ 	c #E8E5E8",
": 	c #E2E3E8",
"< 	c #D9DBE1",
"[ 	c #E5E3E4",
"} 	c #E5E3E5",
"| 	c #E4E3E4",
"1 	c #E5E4E5",
"2 	c #D9DBE2",
"3 	c #D2D4DB",
"4 	c #E2E0E2",
"5 	c #E3E1E2",
"6 	c #E2E1E2",
"7 	c #E3E0E2",
"8 	c #E2E0E3",
"9 	c #E3E1E3",
"0 	c #E2E1E3",
"a 	c #CACCD5",
"b 	c #E0DEE0",
"c 	c #DFDEE0",
"d 	c #E0DEDF",
"e 	c #E0DFE0",
"f 	c #DFDEDF",
"g 	c #C1C5CE",
"h 	c #DDDCDD",
"i 	c #DDDCDE",
"j 	c #DEDBDD",
"k 	c #DEDCDE",
"l 	c #DEDCDD",
"m 	c #656781",
"n 	c #BABDC8",
"o 	c #DBDADA",
"p 	c #DBD9DB",
"q 	c #DAD9DB",
"r 	c #DADADB",
"s 	c #DBD9DA",
"t 	c #DBDADB",
"u 	c #B1B5C2",
"v 	c #D9D7D9",
"w 	c #D8D7D8",
"x 	c #7A7A89",
"y 	c #676879",
"z 	c #676779",
"A 	c #666779",
"B 	c #797988",
"C 	c #D8D6D9",
"D 	c #D9D7D8",
"E 	c #D8D7D9",
"F 	c #B1B6C2",
"G 	c #A8AEBB",
"H 	c #D6D5D6",
"I 	c #D6D4D6",
"J 	c #D5D5D6",
"K 	c #666778",
"L 	c #787988",
"M 	c #A9AEBB",
"N 	c #59607B",
"O 	c #A1A6B5",
"P 	c #D3D2D3",
"Q 	c #D3D2D4",
"R 	c #D4D2D4",
"S 	c #D4D2D3",
"T 	c #A1A6B6",
"U 	c #686F86",
"V 	c #989FAF",
"W 	c #D0CFD0",
"X 	c #D1D0D1",
"Y 	c #D1CFD0",
"Z 	c #D0D0D0",
"` 	c #D1CFD1",
" .	c #D0D0D1",
"..	c #D1D0D0",
"+.	c #999EAE",
"@.	c #737A91",
"#.	c #9097A8",
"$.	c #9197A8",
"%.	c #9097A9",
"&.	c #9198A8",
"*.	c #9098A8",
"=.	c #7B8193",
"-.	c #75788D",
";.	c #9498A4",
". . . . . . . . . . . . . . . . . . . . . . . . . . . ",
"+ + + + + + + + + + + + + + + + + + + + + + + + + + + ",
"+ + + + + + + + + + + + + + + + + + + + + + + + + + + ",
"+ + + @ # # # # # # # # # # # # # # # # # # # @ + + + ",
"+ + + # $ % % % % % % % % % % % % % % % % % $ # + + + ",
"+ + + # % & * & & & & = & - & & - * & ; * & % # + + + ",
"+ + + # % > , , ' ) ! ! ! , ! ! ! ! ! , ' ~ % # + + + ",
"+ + + # % { ] ^ ] / / ] ( ] ] ] ( _ / ] ] : % # + + + ",
"+ + + # % < [ } } } } [ } [ } } } | 1 } } 2 % # + + + ",
"+ + + # % 3 4 5 4 6 5 7 8 9 6 6 8 9 0 4 4 3 % # + + + ",
"+ + + # % a b b b b c d e f c d c b b b b a % # + + + ",
"+ + + # % g h h h i h h j h k h i h k l h g % # + + + ",
"m m m # % n o p q p r s s t r t t p p p q n % # m m m ",
"m m m # % u v w w w x y z A A A B C w D E F % # m m m ",
"m m m # % G H I H J B z K K K K L H H I J M % # m m m ",
"m m m N % O P P P Q R P Q P P R P S P S P T % N m m m ",
"m m m U % V W X Y Z ` Y  .X ` ` X ` ..X ` +.% U m m m ",
"m m m @.% #.$.#.%.&.#.$.*.%.&.*.%.&.#.#.*.$.% @.m m m ",
"m m m =.$ % % % % % % % % % % % % % % % % % $ =.m m m ",
"m m m -.;.;.;.;.;.;.;.;.;.;.;.;.;.;.;.;.;.;.;.-.m m m ",
"m m m m m m m m m m m m m m m m m m m m m m m m m m m ",
"m m m m m m m m m m m m m m m m m m m m m m m m m m m ",
"m m m m m m m m m m m m m m m m m m m m m m m m m m m ",
"m m m m m m m m m m m m m m m m m m m m m m m m m m m "};
