/* XPM */
static char * hide_inactive_xpm[] = {
"27 24 50 1",
" 	c None",
".	c #A1A1A1",
"+	c #737373",
"@	c #6D6D6D",
"#	c #646464",
"$	c #585858",
"%	c #4E4E4E",
"&	c #F4F4F4",
"*	c #F3F3F3",
"=	c #EDEDED",
"-	c #E9E9E9",
";	c #ECECEC",
">	c #E5E5E5",
",	c #E6E6E6",
"'	c #E7E7E7",
")	c #DDDDDD",
"!	c #E4E4E4",
"~	c #DEDEDE",
"{	c #D7D7D7",
"]	c #E1E1E1",
"^	c #E2E2E2",
"/	c #D0D0D0",
"(	c #DFDFDF",
"_	c #E0E0E0",
":	c #C8C8C8",
"<	c #606060",
"[	c #C1C1C1",
"}	c #DBDBDB",
"|	c #DADADA",
"1	c #BABABA",
"2	c #D8D8D8",
"3	c #818181",
"4	c #707070",
"5	c #B2B2B2",
"6	c #D6D6D6",
"7	c #D5D5D5",
"8	c #808080",
"9	c #6F6F6F",
"0	c #6A6A6A",
"a	c #ABABAB",
"b	c #D3D3D3",
"c	c #ACACAC",
"d	c #777777",
"e	c #A4A4A4",
"f	c #D1D1D1",
"g	c #828282",
"h	c #9C9C9C",
"i	c #9D9D9D",
"j	c #878787",
"k	c #747474",
"...........................",
"+++++++++++++++++++++++++++",
"+++++++++++++++++++++++++++",
"+++@###################@+++",
"+++#$%%%%%%%%%%%%%%%%%$#+++",
"+++#%&&&&&&*&*&&*&&*&&%#+++",
"+++#%=---------------;%#+++",
"+++#%>,','',',,,''',,>%#+++",
"+++#%)!!!!!!!!!!!!>!!~%#+++",
"+++#%{]^]^^^^^^^^^^]]{%#+++",
"+++#%/((((((_((((((((/%#+++",
"+++#%:))))))))))))))):%#+++",
"<<<#%[}|||}||}}}}||||[%#<<<",
"<<<#%12222344444322221%#<<<",
"<<<#%56766849999866765%#<<<",
"<<<0%abbbbbbbbbbbbbbbc%0<<<",
"<<<d%e/f////ff//f/ff/e%d<<<",
"<<<g%hihiihihiihiihhhi%g<<<",
"<<<j$%%%%%%%%%%%%%%%%%$j<<<",
"<<<khhhhhhhhhhhhhhhhhhhk<<<",
"<<<<<<<<<<<<<<<<<<<<<<<<<<<",
"<<<<<<<<<<<<<<<<<<<<<<<<<<<",
"<<<<<<<<<<<<<<<<<<<<<<<<<<<",
"<<<<<<<<<<<<<<<<<<<<<<<<<<<"};
