/* XPM */
static char * maximize_toggled_active_xpm[] = {
"27 24 119 2",
"  	c None",
". 	c #A4A4B4",
"+ 	c #757793",
"@ 	c #686C88",
"# 	c #525A76",
"$ 	c #485068",
"% 	c #41475B",
"& 	c #F2F2F5",
"* 	c #F3F2F5",
"= 	c #F2F2F4",
"- 	c #F2F1F5",
"; 	c #F3F1F4",
"> 	c #EAEAEF",
", 	c #EAE8E9",
"' 	c #E9E8EA",
") 	c #EAE7EA",
"! 	c #EAE8EA",
"~ 	c #EAEAEE",
"{ 	c #E1E3E8",
"] 	c #E7E5E7",
"^ 	c #E7E5E8",
"/ 	c #E7E6E7",
"( 	c #E8E5E7",
"_ 	c #E8E5E8",
": 	c #E2E3E8",
"< 	c #D9DBE1",
"[ 	c #E5E3E4",
"} 	c #E5E3E5",
"| 	c #7E7E8D",
"1 	c #696A7B",
"2 	c #69697B",
"3 	c #7D7D8C",
"4 	c #E4E3E4",
"5 	c #E5E4E5",
"6 	c #D9DBE2",
"7 	c #D2D4DB",
"8 	c #E2E0E2",
"9 	c #E3E1E2",
"0 	c #E2E1E2",
"a 	c #6C6D7E",
"b 	c #656577",
"c 	c #68697B",
"d 	c #68697A",
"e 	c #646577",
"f 	c #E3E1E3",
"g 	c #E2E1E3",
"h 	c #CACCD5",
"i 	c #E0DEE0",
"j 	c #777887",
"k 	c #E0DEDF",
"l 	c #E0DFE0",
"m 	c #DFDEDF",
"n 	c #DFDEE0",
"o 	c #7B7B8A",
"p 	c #C1C5CE",
"q 	c #DDDCDD",
"r 	c #DDDCDE",
"s 	c #6B6C7D",
"t 	c #636476",
"u 	c #676779",
"v 	c #7A7A8A",
"w 	c #DEDCDE",
"x 	c #DEDCDD",
"y 	c #656781",
"z 	c #BABDC8",
"A 	c #DBDADA",
"B 	c #DBD9DB",
"C 	c #DAD9DB",
"D 	c #6B6B7C",
"E 	c #DBDADB",
"F 	c #7D7E8C",
"G 	c #B1B5C2",
"H 	c #D9D7D9",
"I 	c #D8D7D8",
"J 	c #767685",
"K 	c #D8D7D9",
"L 	c #D9D7D8",
"M 	c #727282",
"N 	c #797988",
"O 	c #D8D6D9",
"P 	c #B1B6C2",
"Q 	c #A8AEBB",
"R 	c #D6D5D6",
"S 	c #D6D4D6",
"T 	c #D5D5D6",
"U 	c #7C7C8B",
"V 	c #787988",
"W 	c #7C7C8A",
"X 	c #787887",
"Y 	c #6D6D7E",
"Z 	c #757584",
"` 	c #7B7C8A",
" .	c #A9AEBB",
"..	c #59607B",
"+.	c #A1A6B5",
"@.	c #D3D2D3",
"#.	c #D3D2D4",
"$.	c #D4D2D4",
"%.	c #D4D2D3",
"&.	c #A1A6B6",
"*.	c #686F86",
"=.	c #989FAF",
"-.	c #D0CFD0",
";.	c #D1D0D1",
">.	c #D1CFD0",
",.	c #D0D0D0",
"'.	c #D1CFD1",
").	c #D0D0D1",
"!.	c #D1D0D0",
"~.	c #999EAE",
"{.	c #737A91",
"].	c #9097A8",
"^.	c #9197A8",
"/.	c #9097A9",
"(.	c #9198A8",
"_.	c #9098A8",
":.	c #7B8193",
"<.	c #75788D",
"[.	c #9498A4",
". . . . . . . . . . . . . . . . . . . . . . . . . . . ",
"+ + + + + + + + + + + + + + + + + + + + + + + + + + + ",
"+ + + + + + + + + + + + + + + + + + + + + + + + + + + ",
"+ + + @ # # # # # # # # # # # # # # # # # # # @ + + + ",
"+ + + # $ % % % % % % % % % % % % % % % % % $ # + + + ",
"+ + + # % & * & & & & = & - & & - * & ; * & % # + + + ",
"+ + + # % > , , ' ) ! ! ! , ! ! ! ! ! , ' ~ % # + + + ",
"+ + + # % { ] ^ ] / / ] ( ] ] ] ( _ / ] ] : % # + + + ",
"+ + + # % < [ } } } | 1 2 2 2 2 3 4 5 } } 6 % # + + + ",
"+ + + # % 7 8 9 8 0 a b c c d e a f g 8 8 7 % # + + + ",
"+ + + # % h i i i i j k l m n k o i i i i h % # + + + ",
"+ + + # % p q q q r s t u u v q | q w x q p % # + + + ",
"y y y # % z A B C B D t u t D E F B B B C z % # y y y ",
"y y y # % G H I I I J K L I M I N O I L K P % # y y y ",
"y y y # % Q R S R T U V W X Y Z ` R R S T  .% # y y y ",
"y y y ..% +.@.@.@.#.$.@.#.@.@.$.@.%.@.%.@.&.% ..y y y ",
"y y y *.% =.-.;.>.,.'.>.).;.'.'.;.'.!.;.'.~.% *.y y y ",
"y y y {.% ].^.]./.(.].^._./.(._./.(.].]._.^.% {.y y y ",
"y y y :.$ % % % % % % % % % % % % % % % % % $ :.y y y ",
"y y y <.[.[.[.[.[.[.[.[.[.[.[.[.[.[.[.[.[.[.[.<.y y y ",
"y y y y y y y y y y y y y y y y y y y y y y y y y y y ",
"y y y y y y y y y y y y y y y y y y y y y y y y y y y ",
"y y y y y y y y y y y y y y y y y y y y y y y y y y y ",
"y y y y y y y y y y y y y y y y y y y y y y y y y y y "};
