/* XPM */
static char * maximize_toggled_inactive_xpm[] = {
"27 24 59 1",
" 	c None",
".	c #A1A1A1",
"+	c #737373",
"@	c #6D6D6D",
"#	c #646464",
"$	c #585858",
"%	c #4E4E4E",
"&	c #F4F4F4",
"*	c #F3F3F3",
"=	c #EDEDED",
"-	c #E9E9E9",
";	c #ECECEC",
">	c #E5E5E5",
",	c #E6E6E6",
"'	c #E7E7E7",
")	c #DDDDDD",
"!	c #E4E4E4",
"~	c #858585",
"{	c #727272",
"]	c #848484",
"^	c #DEDEDE",
"/	c #D7D7D7",
"(	c #E1E1E1",
"_	c #E2E2E2",
":	c #757575",
"<	c #6E6E6E",
"[	c #717171",
"}	c #D0D0D0",
"|	c #DFDFDF",
"1	c #7F7F7F",
"2	c #E0E0E0",
"3	c #828282",
"4	c #C8C8C8",
"5	c #747474",
"6	c #707070",
"7	c #606060",
"8	c #C1C1C1",
"9	c #DBDBDB",
"0	c #DADADA",
"a	c #6C6C6C",
"b	c #BABABA",
"c	c #D8D8D8",
"d	c #7D7D7D",
"e	c #7A7A7A",
"f	c #808080",
"g	c #B2B2B2",
"h	c #D6D6D6",
"i	c #D5D5D5",
"j	c #838383",
"k	c #6A6A6A",
"l	c #ABABAB",
"m	c #D3D3D3",
"n	c #ACACAC",
"o	c #777777",
"p	c #A4A4A4",
"q	c #D1D1D1",
"r	c #9C9C9C",
"s	c #9D9D9D",
"t	c #878787",
"...........................",
"+++++++++++++++++++++++++++",
"+++++++++++++++++++++++++++",
"+++@###################@+++",
"+++#$%%%%%%%%%%%%%%%%%$#+++",
"+++#%&&&&&&*&*&&*&&*&&%#+++",
"+++#%=---------------;%#+++",
"+++#%>,','',',,,''',,>%#+++",
"+++#%)!!!!~{{{{{]!>!!^%#+++",
"+++#%/(_(_:<[[[<:__((/%#+++",
"+++#%}||||1|2|||3||||}%#+++",
"+++#%4))))5@663)~))))4%#+++",
"777#%890005a6@59~00008%#777",
"777#%bccccdcccecfccccb%#777",
"777#%ghihhjfj1:djhhihg%#777",
"777k%lmmmmmmmmmmmmmmmn%k777",
"777o%p}q}}}}qq}}q}qq}p%o777",
"7773%rsrssrsrssrssrrrs%3777",
"777t$%%%%%%%%%%%%%%%%%$t777",
"7775rrrrrrrrrrrrrrrrrrr5777",
"777777777777777777777777777",
"777777777777777777777777777",
"777777777777777777777777777",
"777777777777777777777777777"};
