/* XPM */
static char * maximize_inactive_xpm[] = {
"27 24 56 1",
" 	c None",
".	c #A1A1A1",
"+	c #737373",
"@	c #6D6D6D",
"#	c #646464",
"$	c #585858",
"%	c #4E4E4E",
"&	c #F4F4F4",
"*	c #F3F3F3",
"=	c #EDEDED",
"-	c #E9E9E9",
";	c #ECECEC",
">	c #E5E5E5",
",	c #E6E6E6",
"'	c #E7E7E7",
")	c #DDDDDD",
"!	c #E4E4E4",
"~	c #858585",
"{	c #727272",
"]	c #848484",
"^	c #DEDEDE",
"/	c #D7D7D7",
"(	c #E1E1E1",
"_	c #E2E2E2",
":	c #757575",
"<	c #6E6E6E",
"[	c #717171",
"}	c #D0D0D0",
"|	c #DFDFDF",
"1	c #838383",
"2	c #E0E0E0",
"3	c #C8C8C8",
"4	c #868686",
"5	c #606060",
"6	c #C1C1C1",
"7	c #DBDBDB",
"8	c #DADADA",
"9	c #BABABA",
"0	c #D8D8D8",
"a	c #818181",
"b	c #B2B2B2",
"c	c #D6D6D6",
"d	c #D5D5D5",
"e	c #808080",
"f	c #6A6A6A",
"g	c #ABABAB",
"h	c #D3D3D3",
"i	c #ACACAC",
"j	c #777777",
"k	c #A4A4A4",
"l	c #D1D1D1",
"m	c #828282",
"n	c #9C9C9C",
"o	c #9D9D9D",
"p	c #878787",
"q	c #747474",
"...........................",
"+++++++++++++++++++++++++++",
"+++++++++++++++++++++++++++",
"+++@###################@+++",
"+++#$%%%%%%%%%%%%%%%%%$#+++",
"+++#%&&&&&&*&*&&*&&*&&%#+++",
"+++#%=---------------;%#+++",
"+++#%>,','',',,,''',,>%#+++",
"+++#%)!!!!~{{{{{]!>!!^%#+++",
"+++#%/(_(_:<[[[<:__((/%#+++",
"+++#%}||||1|2|||1||||}%#+++",
"+++#%3))))4)))))4))))3%#+++",
"555#%67888~88777~88886%#555",
"555#%90000a00000a00009%#555",
"555#%bcdcc1e]11e1ccdcb%#555",
"555f%ghhhhhhhhhhhhhhhi%f555",
"555j%k}l}}}}ll}}l}ll}k%j555",
"555m%nonoononoonoonnno%m555",
"555p$%%%%%%%%%%%%%%%%%$p555",
"555qnnnnnnnnnnnnnnnnnnnq555",
"555555555555555555555555555",
"555555555555555555555555555",
"555555555555555555555555555",
"555555555555555555555555555"};
