/* XPM */
static char * maximize_prelight_xpm[] = {
"27 24 113 2",
"  	c None",
". 	c #A4A4B4",
"+ 	c #757793",
"@ 	c #686C88",
"# 	c #525A76",
"$ 	c #485068",
"% 	c #41475B",
"& 	c #F2F2F5",
"* 	c #F3F2F5",
"= 	c #F2F2F4",
"- 	c #F2F1F5",
"; 	c #F3F1F4",
"> 	c #EAEAEF",
", 	c #EAE8E9",
"' 	c #E9E8EA",
") 	c #EAE7EA",
"! 	c #EAE8EA",
"~ 	c #EAEAEE",
"{ 	c #E1E3E8",
"] 	c #E7E5E7",
"^ 	c #E7E5E8",
"/ 	c #E7E6E7",
"( 	c #E8E5E7",
"_ 	c #E8E5E8",
": 	c #E2E3E8",
"< 	c #D9DBE1",
"[ 	c #E5E3E4",
"} 	c #E5E3E5",
"| 	c #46BAF6",
"1 	c #27B2FA",
"2 	c #26B1FA",
"3 	c #46BAF7",
"4 	c #E4E3E4",
"5 	c #E5E4E5",
"6 	c #D9DBE2",
"7 	c #D2D4DB",
"8 	c #E2E0E2",
"9 	c #E3E1E2",
"0 	c #E2E1E2",
"a 	c #2CB3F9",
"b 	c #20B0FA",
"c 	c #1FB0FA",
"d 	c #2CB2F9",
"e 	c #E3E1E3",
"f 	c #E2E1E3",
"g 	c #CACCD5",
"h 	c #E0DEE0",
"i 	c #44B8F5",
"j 	c #E0DEDF",
"k 	c #E0DFE0",
"l 	c #DFDEDF",
"m 	c #DFDEE0",
"n 	c #C1C5CE",
"o 	c #DDDCDD",
"p 	c #DDDCDE",
"q 	c #49B9F3",
"r 	c #DEDBDD",
"s 	c #DEDCDE",
"t 	c #49B9F4",
"u 	c #DEDCDD",
"v 	c #656781",
"w 	c #BABDC8",
"x 	c #DBDADA",
"y 	c #DBD9DB",
"z 	c #DAD9DB",
"A 	c #48B8F3",
"B 	c #DBD9DA",
"C 	c #DBDADB",
"D 	c #DADADB",
"E 	c #49B8F3",
"F 	c #B1B5C2",
"G 	c #D9D7D9",
"H 	c #D8D7D8",
"I 	c #42B6F3",
"J 	c #D8D7D9",
"K 	c #D9D7D8",
"L 	c #D8D6D9",
"M 	c #B1B6C2",
"N 	c #A8AEBB",
"O 	c #D6D5D6",
"P 	c #D6D4D6",
"Q 	c #D5D5D6",
"R 	c #47B6F1",
"S 	c #41B5F2",
"T 	c #47B7F1",
"U 	c #46B6F1",
"V 	c #A9AEBB",
"W 	c #59607B",
"X 	c #A1A6B5",
"Y 	c #D3D2D3",
"Z 	c #D3D2D4",
"` 	c #D4D2D4",
" .	c #D4D2D3",
"..	c #A1A6B6",
"+.	c #686F86",
"@.	c #989FAF",
"#.	c #D0CFD0",
"$.	c #D1D0D1",
"%.	c #D1CFD0",
"&.	c #D0D0D0",
"*.	c #D1CFD1",
"=.	c #D0D0D1",
"-.	c #D1D0D0",
";.	c #999EAE",
">.	c #737A91",
",.	c #9097A8",
"'.	c #9197A8",
").	c #9097A9",
"!.	c #9198A8",
"~.	c #9098A8",
"{.	c #7B8193",
"].	c #75788D",
"^.	c #9498A4",
". . . . . . . . . . . . . . . . . . . . . . . . . . . ",
"+ + + + + + + + + + + + + + + + + + + + + + + + + + + ",
"+ + + + + + + + + + + + + + + + + + + + + + + + + + + ",
"+ + + @ # # # # # # # # # # # # # # # # # # # @ + + + ",
"+ + + # $ % % % % % % % % % % % % % % % % % $ # + + + ",
"+ + + # % & * & & & & = & - & & - * & ; * & % # + + + ",
"+ + + # % > , , ' ) ! ! ! , ! ! ! ! ! , ' ~ % # + + + ",
"+ + + # % { ] ^ ] / / ] ( ] ] ] ( _ / ] ] : % # + + + ",
"+ + + # % < [ } } } | 1 2 2 2 2 3 4 5 } } 6 % # + + + ",
"+ + + # % 7 8 9 8 0 a b 2 2 2 c d e f 8 8 7 % # + + + ",
"+ + + # % g h h h h i j k l m j i h h h h g % # + + + ",
"+ + + # % n o o o p q o r o s o t o s u o n % # + + + ",
"v v v # % w x y z y A B B C D C E y y y z w % # v v v ",
"v v v # % F G H H H I J K H L H I L H K J M % # v v v ",
"v v v # % N O P O Q R S T R R S U O O P Q V % # v v v ",
"v v v W % X Y Y Y Z ` Y Z Y Y ` Y  .Y  .Y ..% W v v v ",
"v v v +.% @.#.$.%.&.*.%.=.$.*.*.$.*.-.$.*.;.% +.v v v ",
"v v v >.% ,.'.,.).!.,.'.~.).!.~.).!.,.,.~.'.% >.v v v ",
"v v v {.$ % % % % % % % % % % % % % % % % % $ {.v v v ",
"v v v ].^.^.^.^.^.^.^.^.^.^.^.^.^.^.^.^.^.^.^.].v v v ",
"v v v v v v v v v v v v v v v v v v v v v v v v v v v ",
"v v v v v v v v v v v v v v v v v v v v v v v v v v v ",
"v v v v v v v v v v v v v v v v v v v v v v v v v v v ",
"v v v v v v v v v v v v v v v v v v v v v v v v v v v "};
