/* XPM */
static char * maximize_toggled_pressed_xpm[] = {
"27 24 113 2",
"  	c None",
". 	c #A4A4B4",
"+ 	c #757793",
"@ 	c #686C88",
"# 	c #525A76",
"$ 	c #485068",
"% 	c #41475B",
"& 	c #969499",
"* 	c #BDBCC3",
"= 	c #BEBDC4",
"- 	c #C0BEC6",
"; 	c #C0BFC6",
"> 	c #C2C0C7",
", 	c #C2C1C7",
"' 	c #C3C2C7",
") 	c #C4C2C8",
"! 	c #C3C2C8",
"~ 	c #C3C1C7",
"{ 	c #C1C1C7",
"] 	c #BFBEC5",
"^ 	c #BEBDC5",
"/ 	c #C0BEC5",
"( 	c #C1C0C7",
"_ 	c #C4C3C8",
": 	c #C5C3C9",
"< 	c #C6C4C9",
"[ 	c #C6C4CA",
"} 	c #C6C3CA",
"| 	c #C5C3C8",
"1 	c #C1BFC6",
"2 	c #C0BFC5",
"3 	c #C1C0C6",
"4 	c #C2C2C7",
"5 	c #C6C5CA",
"6 	c #C7C5CA",
"7 	c #C8C5CA",
"8 	c #C7C6CB",
"9 	c #C4C2C9",
"0 	c #BFBFC5",
"a 	c #C3C1C8",
"b 	c #C7C5CB",
"c 	c #3DB1EE",
"d 	c #22ADF6",
"e 	c #21ADF6",
"f 	c #3DB1EF",
"g 	c #C3C0C7",
"h 	c #C1C0C5",
"i 	c #C5C4CA",
"j 	c #C9C6CC",
"k 	c #27AEF5",
"l 	c #1DACF7",
"m 	c #1CACF7",
"n 	c #C9C6CB",
"o 	c #C4C1C8",
"p 	c #C8C6CB",
"q 	c #CAC8CC",
"r 	c #38B1F1",
"s 	c #CDCACE",
"t 	c #CECBCF",
"u 	c #CECACF",
"v 	c #3DB1F0",
"w 	c #CAC7CD",
"x 	c #C6C5C9",
"y 	c #C5C2C8",
"z 	c #656781",
"A 	c #CAC7CC",
"B 	c #CCC8CD",
"C 	c #28AEF5",
"D 	c #1DADF8",
"E 	c #22ADF7",
"F 	c #22AEF7",
"G 	c #3EB3F0",
"H 	c #43B3EF",
"I 	c #CBC8CD",
"J 	c #C9C7CC",
"K 	c #CAC8CD",
"L 	c #CCC9CE",
"M 	c #23AEF7",
"N 	c #29AFF5",
"O 	c #D0CDD0",
"P 	c #CDCACF",
"Q 	c #39B1F1",
"R 	c #D1CDD1",
"S 	c #D2CFD2",
"T 	c #D4CFD3",
"U 	c #34B1F3",
"V 	c #D0CDD1",
"W 	c #3EB2F0",
"X 	c #C5C4C9",
"Y 	c #59607B",
"Z 	c #44B3EF",
"` 	c #3FB3F0",
" .	c #45B4F0",
"..	c #3FB3F1",
"+.	c #2DB0F5",
"@.	c #39B2F1",
"#.	c #CCCACE",
"$.	c #C5C3CA",
"%.	c #686F86",
"&.	c #C6C3C9",
"*.	c #C8C6CA",
"=.	c #CDCBCF",
"-.	c #CFCCD0",
";.	c #CBC9CD",
">.	c #737A91",
",.	c #C7C4CB",
"'.	c #CCC9CD",
").	c #CFCCCF",
"!.	c #CECBD0",
"~.	c #C7C4CA",
"{.	c #7B8193",
"].	c #75788D",
"^.	c #9498A4",
". . . . . . . . . . . . . . . . . . . . . . . . . . . ",
"+ + + + + + + + + + + + + + + + + + + + + + + + + + + ",
"+ + + + + + + + + + + + + + + + + + + + + + + + + + + ",
"+ + + @ # # # # # # # # # # # # # # # # # # # @ + + + ",
"+ + + # $ % % % % % % % % % % % % % % % % % $ # + + + ",
"+ + + # % & & & & & & & & & & & & & & & & & % # + + + ",
"+ + + # % * = - ; > , ' ) ! ! ~ ~ { ; ] = * % # + + + ",
"+ + + # % ^ / ( ~ ! _ : < [ } | ) ) > 1 ] = % # + + + ",
"+ + + # % 2 3 4 ) [ 5 6 7 8 8 6 [ : 9 ~ 1 0 % # + + + ",
"+ + + # % 3 a 9 < b c d e d e e f 6 : _ g h % # + + + ",
"+ + + # % , ! i 6 j k l d d d m k n 6 < o > % # + + + ",
"+ + + # % a : 6 p q r s t t u s v w p x y , % # + + + ",
"z z z # % ) : b A B C D E F G t H I J b : a % # z z z ",
"z z z # % ! [ p K L C D M D N O H L w 8 [ ) % # z z z ",
"z z z # % ! [ p q P Q R S T U V W L A p X ! % # z z z ",
"z z z Y % ) [ p K L Z `  ...+.@.H #.A b $.a % Y z z z ",
"z z z %.% ) &.*.A L =.-.V R V -.s ;.J 6 : a % %.z z z ",
"z z z >.% 4 : ,.n K '.=.).!.!.t L q p ~.: , % >.z z z ",
"z z z {.$ % % % % % % % % % % % % % % % % % $ {.z z z ",
"z z z ].^.^.^.^.^.^.^.^.^.^.^.^.^.^.^.^.^.^.^.].z z z ",
"z z z z z z z z z z z z z z z z z z z z z z z z z z z ",
"z z z z z z z z z z z z z z z z z z z z z z z z z z z ",
"z z z z z z z z z z z z z z z z z z z z z z z z z z z ",
"z z z z z z z z z z z z z z z z z z z z z z z z z z z "};
