/* XPM */
static char * maximize_active_xpm[] = {
"27 24 113 2",
"  	c None",
". 	c #A4A4B4",
"+ 	c #757793",
"@ 	c #686C88",
"# 	c #525A76",
"$ 	c #485068",
"% 	c #41475B",
"& 	c #F2F2F5",
"* 	c #F3F2F5",
"= 	c #F2F2F4",
"- 	c #F2F1F5",
"; 	c #F3F1F4",
"> 	c #EAEAEF",
", 	c #EAE8E9",
"' 	c #E9E8EA",
") 	c #EAE7EA",
"! 	c #EAE8EA",
"~ 	c #EAEAEE",
"{ 	c #E1E3E8",
"] 	c #E7E5E7",
"^ 	c #E7E5E8",
"/ 	c #E7E6E7",
"( 	c #E8E5E7",
"_ 	c #E8E5E8",
": 	c #E2E3E8",
"< 	c #D9DBE1",
"[ 	c #E5E3E4",
"} 	c #E5E3E5",
"| 	c #7E7E8D",
"1 	c #696A7B",
"2 	c #69697B",
"3 	c #7D7D8C",
"4 	c #E4E3E4",
"5 	c #E5E4E5",
"6 	c #D9DBE2",
"7 	c #D2D4DB",
"8 	c #E2E0E2",
"9 	c #E3E1E2",
"0 	c #E2E1E2",
"a 	c #6C6D7E",
"b 	c #656577",
"c 	c #68697B",
"d 	c #68697A",
"e 	c #646577",
"f 	c #E3E1E3",
"g 	c #E2E1E3",
"h 	c #CACCD5",
"i 	c #E0DEE0",
"j 	c #7B7C8B",
"k 	c #E0DEDF",
"l 	c #E0DFE0",
"m 	c #DFDEDF",
"n 	c #DFDEE0",
"o 	c #C1C5CE",
"p 	c #DDDCDD",
"q 	c #DDDCDE",
"r 	c #7F7F8D",
"s 	c #DEDBDD",
"t 	c #DEDCDE",
"u 	c #7F7F8E",
"v 	c #DEDCDD",
"w 	c #656781",
"x 	c #BABDC8",
"y 	c #DBDADA",
"z 	c #DBD9DB",
"A 	c #DAD9DB",
"B 	c #DBD9DA",
"C 	c #DBDADB",
"D 	c #DADADB",
"E 	c #B1B5C2",
"F 	c #D9D7D9",
"G 	c #D8D7D8",
"H 	c #797988",
"I 	c #D8D7D9",
"J 	c #D9D7D8",
"K 	c #D8D6D9",
"L 	c #B1B6C2",
"M 	c #A8AEBB",
"N 	c #D6D5D6",
"O 	c #D6D4D6",
"P 	c #D5D5D6",
"Q 	c #7C7C8B",
"R 	c #787988",
"S 	c #7C7D8B",
"T 	c #787987",
"U 	c #7B7C8A",
"V 	c #A9AEBB",
"W 	c #59607B",
"X 	c #A1A6B5",
"Y 	c #D3D2D3",
"Z 	c #D3D2D4",
"` 	c #D4D2D4",
" .	c #D4D2D3",
"..	c #A1A6B6",
"+.	c #686F86",
"@.	c #989FAF",
"#.	c #D0CFD0",
"$.	c #D1D0D1",
"%.	c #D1CFD0",
"&.	c #D0D0D0",
"*.	c #D1CFD1",
"=.	c #D0D0D1",
"-.	c #D1D0D0",
";.	c #999EAE",
">.	c #737A91",
",.	c #9097A8",
"'.	c #9197A8",
").	c #9097A9",
"!.	c #9198A8",
"~.	c #9098A8",
"{.	c #7B8193",
"].	c #75788D",
"^.	c #9498A4",
". . . . . . . . . . . . . . . . . . . . . . . . . . . ",
"+ + + + + + + + + + + + + + + + + + + + + + + + + + + ",
"+ + + + + + + + + + + + + + + + + + + + + + + + + + + ",
"+ + + @ # # # # # # # # # # # # # # # # # # # @ + + + ",
"+ + + # $ % % % % % % % % % % % % % % % % % $ # + + + ",
"+ + + # % & * & & & & = & - & & - * & ; * & % # + + + ",
"+ + + # % > , , ' ) ! ! ! , ! ! ! ! ! , ' ~ % # + + + ",
"+ + + # % { ] ^ ] / / ] ( ] ] ] ( _ / ] ] : % # + + + ",
"+ + + # % < [ } } } | 1 2 2 2 2 3 4 5 } } 6 % # + + + ",
"+ + + # % 7 8 9 8 0 a b c c d e a f g 8 8 7 % # + + + ",
"+ + + # % h i i i i j k l m n k j i i i i h % # + + + ",
"+ + + # % o p p p q r p s p t p u p t v p o % # + + + ",
"w w w # % x y z A z | B B C D C | z z z A x % # w w w ",
"w w w # % E F G G G H I J G K G H K G J I L % # w w w ",
"w w w # % M N O N P Q R S Q Q T U N N O P V % # w w w ",
"w w w W % X Y Y Y Z ` Y Z Y Y ` Y  .Y  .Y ..% W w w w ",
"w w w +.% @.#.$.%.&.*.%.=.$.*.*.$.*.-.$.*.;.% +.w w w ",
"w w w >.% ,.'.,.).!.,.'.~.).!.~.).!.,.,.~.'.% >.w w w ",
"w w w {.$ % % % % % % % % % % % % % % % % % $ {.w w w ",
"w w w ].^.^.^.^.^.^.^.^.^.^.^.^.^.^.^.^.^.^.^.].w w w ",
"w w w w w w w w w w w w w w w w w w w w w w w w w w w ",
"w w w w w w w w w w w w w w w w w w w w w w w w w w w ",
"w w w w w w w w w w w w w w w w w w w w w w w w w w w ",
"w w w w w w w w w w w w w w w w w w w w w w w w w w w "};
