/* XPM */
static char * maximize_toggled_prelight_xpm[] = {
"27 24 121 2",
"  	c None",
". 	c #A4A4B4",
"+ 	c #757793",
"@ 	c #686C88",
"# 	c #525A76",
"$ 	c #485068",
"% 	c #41475B",
"& 	c #F2F2F5",
"* 	c #F3F2F5",
"= 	c #F2F2F4",
"- 	c #F2F1F5",
"; 	c #F3F1F4",
"> 	c #EAEAEF",
", 	c #EAE8E9",
"' 	c #E9E8EA",
") 	c #EAE7EA",
"! 	c #EAE8EA",
"~ 	c #EAEAEE",
"{ 	c #E1E3E8",
"] 	c #E7E5E7",
"^ 	c #E7E5E8",
"/ 	c #E7E6E7",
"( 	c #E8E5E7",
"_ 	c #E8E5E8",
": 	c #E2E3E8",
"< 	c #D9DBE1",
"[ 	c #E5E3E4",
"} 	c #E5E3E5",
"| 	c #46BAF6",
"1 	c #27B2FA",
"2 	c #26B1FA",
"3 	c #46BAF7",
"4 	c #E4E3E4",
"5 	c #E5E4E5",
"6 	c #D9DBE2",
"7 	c #D2D4DB",
"8 	c #E2E0E2",
"9 	c #E3E1E2",
"0 	c #E2E1E2",
"a 	c #2CB3F9",
"b 	c #20B0FA",
"c 	c #1FB0FA",
"d 	c #2CB2F9",
"e 	c #E3E1E3",
"f 	c #E2E1E3",
"g 	c #CACCD5",
"h 	c #E0DEE0",
"i 	c #3EB7F6",
"j 	c #E0DEDF",
"k 	c #E0DFE0",
"l 	c #DFDEDF",
"m 	c #DFDEE0",
"n 	c #43B8F5",
"o 	c #C1C5CE",
"p 	c #DDDCDD",
"q 	c #DDDCDE",
"r 	c #2BB2F8",
"s 	c #1FAFFA",
"t 	c #24B0F9",
"u 	c #43B7F5",
"v 	c #48B9F4",
"w 	c #DEDCDE",
"x 	c #DEDCDD",
"y 	c #656781",
"z 	c #BABDC8",
"A 	c #DBDADA",
"B 	c #DBD9DB",
"C 	c #DAD9DB",
"D 	c #2AB1F7",
"E 	c #1EAEF9",
"F 	c #24B0F8",
"G 	c #1EAFF9",
"H 	c #DBDADB",
"I 	c #48B8F3",
"J 	c #B1B5C2",
"K 	c #D9D7D9",
"L 	c #D8D7D8",
"M 	c #3CB5F4",
"N 	c #D8D7D9",
"O 	c #D9D7D8",
"P 	c #36B3F5",
"Q 	c #41B6F3",
"R 	c #D8D6D9",
"S 	c #B1B6C2",
"T 	c #A8AEBB",
"U 	c #D6D5D6",
"V 	c #D6D4D6",
"W 	c #D5D5D6",
"X 	c #47B6F1",
"Y 	c #41B5F2",
"Z 	c #46B6F1",
"` 	c #40B5F2",
" .	c #2EB1F5",
"..	c #3BB4F3",
"+.	c #A9AEBB",
"@.	c #59607B",
"#.	c #A1A6B5",
"$.	c #D3D2D3",
"%.	c #D3D2D4",
"&.	c #D4D2D4",
"*.	c #D4D2D3",
"=.	c #A1A6B6",
"-.	c #686F86",
";.	c #989FAF",
">.	c #D0CFD0",
",.	c #D1D0D1",
"'.	c #D1CFD0",
").	c #D0D0D0",
"!.	c #D1CFD1",
"~.	c #D0D0D1",
"{.	c #D1D0D0",
"].	c #999EAE",
"^.	c #737A91",
"/.	c #9097A8",
"(.	c #9197A8",
"_.	c #9097A9",
":.	c #9198A8",
"<.	c #9098A8",
"[.	c #7B8193",
"}.	c #75788D",
"|.	c #9498A4",
". . . . . . . . . . . . . . . . . . . . . . . . . . . ",
"+ + + + + + + + + + + + + + + + + + + + + + + + + + + ",
"+ + + + + + + + + + + + + + + + + + + + + + + + + + + ",
"+ + + @ # # # # # # # # # # # # # # # # # # # @ + + + ",
"+ + + # $ % % % % % % % % % % % % % % % % % $ # + + + ",
"+ + + # % & * & & & & = & - & & - * & ; * & % # + + + ",
"+ + + # % > , , ' ) ! ! ! , ! ! ! ! ! , ' ~ % # + + + ",
"+ + + # % { ] ^ ] / / ] ( ] ] ] ( _ / ] ] : % # + + + ",
"+ + + # % < [ } } } | 1 2 2 2 2 3 4 5 } } 6 % # + + + ",
"+ + + # % 7 8 9 8 0 a b 2 2 2 c d e f 8 8 7 % # + + + ",
"+ + + # % g h h h h i j k l m j n h h h h g % # + + + ",
"+ + + # % o p p p q r s t t u p v p w x p o % # + + + ",
"y y y # % z A B C B D E F G D H I B B B C z % # y y y ",
"y y y # % J K L L L M N O L P L Q R L O N S % # y y y ",
"y y y # % T U V U W X Y Z `  ...Z U U V W +.% # y y y ",
"y y y @.% #.$.$.$.%.&.$.%.$.$.&.$.*.$.*.$.=.% @.y y y ",
"y y y -.% ;.>.,.'.).!.'.~.,.!.!.,.!.{.,.!.].% -.y y y ",
"y y y ^.% /.(./._.:./.(.<._.:.<._.:././.<.(.% ^.y y y ",
"y y y [.$ % % % % % % % % % % % % % % % % % $ [.y y y ",
"y y y }.|.|.|.|.|.|.|.|.|.|.|.|.|.|.|.|.|.|.|.}.y y y ",
"y y y y y y y y y y y y y y y y y y y y y y y y y y y ",
"y y y y y y y y y y y y y y y y y y y y y y y y y y y ",
"y y y y y y y y y y y y y y y y y y y y y y y y y y y ",
"y y y y y y y y y y y y y y y y y y y y y y y y y y y "};
