/* XPM */
static char * menu_active_xpm[] = {
"27 24 105 2",
"  	c None",
". 	c #A4A4B4",
"+ 	c #757793",
"@ 	c #686C88",
"# 	c #525A76",
"$ 	c #485068",
"% 	c #41475B",
"& 	c #F2F2F5",
"* 	c #F3F2F5",
"= 	c #F2F2F4",
"- 	c #F2F1F5",
"; 	c #F3F1F4",
"> 	c #EAEAEF",
", 	c #EAE8E9",
"' 	c #E9E8EA",
") 	c #EAE7EA",
"! 	c #EAE8EA",
"~ 	c #EAEAEE",
"{ 	c #E1E3E8",
"] 	c #E7E5E7",
"^ 	c #E7E5E8",
"/ 	c #E7E6E7",
"( 	c #E8E5E7",
"_ 	c #E8E5E8",
": 	c #E2E3E8",
"< 	c #D9DBE1",
"[ 	c #E5E3E4",
"} 	c #E5E3E5",
"| 	c #E4E3E4",
"1 	c #E5E4E5",
"2 	c #D9DBE2",
"3 	c #D2D4DB",
"4 	c #E2E0E2",
"5 	c #E3E1E2",
"6 	c #E2E1E2",
"7 	c #7D7D8C",
"8 	c #69697B",
"9 	c #68697B",
"0 	c #68697A",
"a 	c #7C7C8C",
"b 	c #E3E1E3",
"c 	c #E2E1E3",
"d 	c #CACCD5",
"e 	c #E0DEE0",
"f 	c #7C7C8B",
"g 	c #68687A",
"h 	c #7B7C8B",
"i 	c #C1C5CE",
"j 	c #DDDCDD",
"k 	c #DDDCDE",
"l 	c #DEDBDD",
"m 	c #DEDCDE",
"n 	c #DEDCDD",
"o 	c #656781",
"p 	c #BABDC8",
"q 	c #DBDADA",
"r 	c #DBD9DB",
"s 	c #DAD9DB",
"t 	c #7A7A89",
"u 	c #676779",
"v 	c #666779",
"w 	c #797A89",
"x 	c #B1B5C2",
"y 	c #D9D7D9",
"z 	c #D8D7D8",
"A 	c #676879",
"B 	c #797988",
"C 	c #D8D6D9",
"D 	c #D9D7D8",
"E 	c #D8D7D9",
"F 	c #B1B6C2",
"G 	c #A8AEBB",
"H 	c #D6D5D6",
"I 	c #D6D4D6",
"J 	c #D5D5D6",
"K 	c #D5D4D5",
"L 	c #D6D5D5",
"M 	c #D6D4D5",
"N 	c #A9AEBB",
"O 	c #59607B",
"P 	c #A1A6B5",
"Q 	c #D3D2D3",
"R 	c #D3D2D4",
"S 	c #D4D2D4",
"T 	c #D4D2D3",
"U 	c #A1A6B6",
"V 	c #686F86",
"W 	c #989FAF",
"X 	c #D0CFD0",
"Y 	c #D1D0D1",
"Z 	c #D1CFD0",
"` 	c #D0D0D0",
" .	c #D1CFD1",
"..	c #D0D0D1",
"+.	c #D1D0D0",
"@.	c #999EAE",
"#.	c #737A91",
"$.	c #9097A8",
"%.	c #9197A8",
"&.	c #9097A9",
"*.	c #9198A8",
"=.	c #9098A8",
"-.	c #7B8193",
";.	c #75788D",
">.	c #9498A4",
". . . . . . . . . . . . . . . . . . . . . . . . . . . ",
"+ + + + + + + + + + + + + + + + + + + + + + + + + + + ",
"+ + + + + + + + + + + + + + + + + + + + + + + + + + + ",
"+ + + @ # # # # # # # # # # # # # # # # # # # @ + + + ",
"+ + + # $ % % % % % % % % % % % % % % % % % $ # + + + ",
"+ + + # % & * & & & & = & - & & - * & ; * & % # + + + ",
"+ + + # % > , , ' ) ! ! ! , ! ! ! ! ! , ' ~ % # + + + ",
"+ + + # % { ] ^ ] / / ] ( ] ] ] ( _ / ] ] : % # + + + ",
"+ + + # % < [ } } } } [ } [ } } } | 1 } } 2 % # + + + ",
"+ + + # % 3 4 5 4 6 7 8 9 9 0 0 a b c 4 4 3 % # + + + ",
"+ + + # % d e e e e f 0 g g g g h e e e e d % # + + + ",
"+ + + # % i j j j k j j l j m j k j m n j i % # + + + ",
"o o o # % p q r s r t u v v v v w r r r s p % # o o o ",
"o o o # % x y z z z t A u v v v B C z D E F % # o o o ",
"o o o # % G H I H J K I L M I L J H H I J N % # o o o ",
"o o o O % P Q Q Q R S Q R Q Q S Q T Q T Q U % O o o o ",
"o o o V % W X Y Z `  .Z ..Y  . .Y  .+.Y  .@.% V o o o ",
"o o o #.% $.%.$.&.*.$.%.=.&.*.=.&.*.$.$.=.%.% #.o o o ",
"o o o -.$ % % % % % % % % % % % % % % % % % $ -.o o o ",
"o o o ;.>.>.>.>.>.>.>.>.>.>.>.>.>.>.>.>.>.>.>.;.o o o ",
"o o o o o o o o o o o o o o o o o o o o o o o o o o o ",
"o o o o o o o o o o o o o o o o o o o o o o o o o o o ",
"o o o o o o o o o o o o o o o o o o o o o o o o o o o ",
"o o o o o o o o o o o o o o o o o o o o o o o o o o o "};
