/* XPM */
static char * menu_pressed_xpm[] = {
"27 24 98 2",
"  	c None",
". 	c #A4A4B4",
"+ 	c #757793",
"@ 	c #686C88",
"# 	c #525A76",
"$ 	c #485068",
"% 	c #41475B",
"& 	c #969499",
"* 	c #BDBCC3",
"= 	c #BEBDC4",
"- 	c #C0BEC6",
"; 	c #C0BFC6",
"> 	c #C2C0C7",
", 	c #C2C1C7",
"' 	c #C3C2C7",
") 	c #C4C2C8",
"! 	c #C3C2C8",
"~ 	c #C3C1C7",
"{ 	c #C1C1C7",
"] 	c #BFBEC5",
"^ 	c #BEBDC5",
"/ 	c #C0BEC5",
"( 	c #C1C0C7",
"_ 	c #C4C3C8",
": 	c #C5C3C9",
"< 	c #C6C4C9",
"[ 	c #C6C4CA",
"} 	c #C6C3CA",
"| 	c #C5C3C8",
"1 	c #C1BFC6",
"2 	c #C0BFC5",
"3 	c #C1C0C6",
"4 	c #C2C2C7",
"5 	c #C6C5CA",
"6 	c #C7C5CA",
"7 	c #C8C5CA",
"8 	c #C7C6CB",
"9 	c #C4C2C9",
"0 	c #BFBFC5",
"a 	c #C3C1C8",
"b 	c #C7C5CB",
"c 	c #C8C6CB",
"d 	c #CAC7CC",
"e 	c #C9C7CC",
"f 	c #CAC7CD",
"g 	c #C3C0C7",
"h 	c #C1C0C5",
"i 	c #C5C4CA",
"j 	c #C9C6CC",
"k 	c #3EB1EF",
"l 	c #23ADF6",
"m 	c #22ADF6",
"n 	c #3DB1EF",
"o 	c #C9C6CB",
"p 	c #C4C1C8",
"q 	c #CAC8CC",
"r 	c #3FB2EF",
"s 	c #3EB2F0",
"t 	c #C6C5C9",
"u 	c #C5C2C8",
"v 	c #656781",
"w 	c #CCC8CD",
"x 	c #CDCACF",
"y 	c #CFCCCF",
"z 	c #CFCCD0",
"A 	c #D0CDD0",
"B 	c #CECBCF",
"C 	c #CBC8CD",
"D 	c #CAC8CD",
"E 	c #CCC9CE",
"F 	c #3FB2F0",
"G 	c #23AEF7",
"H 	c #22AEF7",
"I 	c #40B2F0",
"J 	c #24AEF7",
"K 	c #C5C4C9",
"L 	c #59607B",
"M 	c #D1CDD1",
"N 	c #D2CED2",
"O 	c #D3CFD2",
"P 	c #D1CFD2",
"Q 	c #CCCACE",
"R 	c #C5C3CA",
"S 	c #686F86",
"T 	c #C6C3C9",
"U 	c #C8C6CA",
"V 	c #CDCBCF",
"W 	c #D0CDD1",
"X 	c #CDCACE",
"Y 	c #CBC9CD",
"Z 	c #737A91",
"` 	c #C7C4CB",
" .	c #CCC9CD",
"..	c #CECBD0",
"+.	c #C7C4CA",
"@.	c #7B8193",
"#.	c #75788D",
"$.	c #9498A4",
". . . . . . . . . . . . . . . . . . . . . . . . . . . ",
"+ + + + + + + + + + + + + + + + + + + + + + + + + + + ",
"+ + + + + + + + + + + + + + + + + + + + + + + + + + + ",
"+ + + @ # # # # # # # # # # # # # # # # # # # @ + + + ",
"+ + + # $ % % % % % % % % % % % % % % % % % $ # + + + ",
"+ + + # % & & & & & & & & & & & & & & & & & % # + + + ",
"+ + + # % * = - ; > , ' ) ! ! ~ ~ { ; ] = * % # + + + ",
"+ + + # % ^ / ( ~ ! _ : < [ } | ) ) > 1 ] = % # + + + ",
"+ + + # % 2 3 4 ) [ 5 6 7 8 8 6 [ : 9 ~ 1 0 % # + + + ",
"+ + + # % 3 a 9 < b c d e f e e c 6 : _ g h % # + + + ",
"+ + + # % , ! i 6 j k l m m m m n o 6 < p > % # + + + ",
"+ + + # % a : 6 c q r l m m m m s f c t u , % # + + + ",
"v v v # % ) : b d w x y z A A B x C e b : a % # v v v ",
"v v v # % ! [ c D E F G H H H H s E f 8 [ ) % # v v v ",
"v v v # % ! [ c q x I J G G G G F E d c K ! % # v v v ",
"v v v L % ) [ c D E B M N O P A B Q d b R a % L v v v ",
"v v v S % ) T U d E V z W M W z X Y e 6 : a % S v v v ",
"v v v Z % 4 : ` o D  .V y ....B E q c +.: , % Z v v v ",
"v v v @.$ % % % % % % % % % % % % % % % % % $ @.v v v ",
"v v v #.$.$.$.$.$.$.$.$.$.$.$.$.$.$.$.$.$.$.$.#.v v v ",
"v v v v v v v v v v v v v v v v v v v v v v v v v v v ",
"v v v v v v v v v v v v v v v v v v v v v v v v v v v ",
"v v v v v v v v v v v v v v v v v v v v v v v v v v v ",
"v v v v v v v v v v v v v v v v v v v v v v v v v v v "};
