/* XPM */
static char * menu_prelight_xpm[] = {
"27 24 108 2",
"  	c None",
". 	c #A4A4B4",
"+ 	c #757793",
"@ 	c #686C88",
"# 	c #525A76",
"$ 	c #485068",
"% 	c #41475B",
"& 	c #F2F2F5",
"* 	c #F3F2F5",
"= 	c #F2F2F4",
"- 	c #F2F1F5",
"; 	c #F3F1F4",
"> 	c #EAEAEF",
", 	c #EAE8E9",
"' 	c #E9E8EA",
") 	c #EAE7EA",
"! 	c #EAE8EA",
"~ 	c #EAEAEE",
"{ 	c #E1E3E8",
"] 	c #E7E5E7",
"^ 	c #E7E5E8",
"/ 	c #E7E6E7",
"( 	c #E8E5E7",
"_ 	c #E8E5E8",
": 	c #E2E3E8",
"< 	c #D9DBE1",
"[ 	c #E5E3E4",
"} 	c #E5E3E5",
"| 	c #E4E3E4",
"1 	c #E5E4E5",
"2 	c #D9DBE2",
"3 	c #D2D4DB",
"4 	c #E2E0E2",
"5 	c #E3E1E2",
"6 	c #E2E1E2",
"7 	c #46B9F6",
"8 	c #27B1F9",
"9 	c #26B1FA",
"0 	c #45B9F6",
"a 	c #E3E1E3",
"b 	c #E2E1E3",
"c 	c #CACCD5",
"d 	c #E0DEE0",
"e 	c #45B8F5",
"f 	c #26B1F9",
"g 	c #25B1F9",
"h 	c #44B8F5",
"i 	c #C1C5CE",
"j 	c #DDDCDD",
"k 	c #DDDCDE",
"l 	c #DEDBDD",
"m 	c #DEDCDE",
"n 	c #DEDCDD",
"o 	c #656781",
"p 	c #BABDC8",
"q 	c #DBDADA",
"r 	c #DBD9DB",
"s 	c #DAD9DB",
"t 	c #42B7F3",
"u 	c #24B0F8",
"v 	c #24B0F9",
"w 	c #23B0F9",
"x 	c #42B7F4",
"y 	c #B1B5C2",
"z 	c #D9D7D9",
"A 	c #D8D7D8",
"B 	c #43B6F2",
"C 	c #25B0F8",
"D 	c #24AFF8",
"E 	c #42B6F3",
"F 	c #D8D6D9",
"G 	c #D9D7D8",
"H 	c #D8D7D9",
"I 	c #B1B6C2",
"J 	c #A8AEBB",
"K 	c #D6D5D6",
"L 	c #D6D4D6",
"M 	c #D5D5D6",
"N 	c #D5D4D5",
"O 	c #D6D5D5",
"P 	c #D6D4D5",
"Q 	c #A9AEBB",
"R 	c #59607B",
"S 	c #A1A6B5",
"T 	c #D3D2D3",
"U 	c #D3D2D4",
"V 	c #D4D2D4",
"W 	c #D4D2D3",
"X 	c #A1A6B6",
"Y 	c #686F86",
"Z 	c #989FAF",
"` 	c #D0CFD0",
" .	c #D1D0D1",
"..	c #D1CFD0",
"+.	c #D0D0D0",
"@.	c #D1CFD1",
"#.	c #D0D0D1",
"$.	c #D1D0D0",
"%.	c #999EAE",
"&.	c #737A91",
"*.	c #9097A8",
"=.	c #9197A8",
"-.	c #9097A9",
";.	c #9198A8",
">.	c #9098A8",
",.	c #7B8193",
"'.	c #75788D",
").	c #9498A4",
". . . . . . . . . . . . . . . . . . . . . . . . . . . ",
"+ + + + + + + + + + + + + + + + + + + + + + + + + + + ",
"+ + + + + + + + + + + + + + + + + + + + + + + + + + + ",
"+ + + @ # # # # # # # # # # # # # # # # # # # @ + + + ",
"+ + + # $ % % % % % % % % % % % % % % % % % $ # + + + ",
"+ + + # % & * & & & & = & - & & - * & ; * & % # + + + ",
"+ + + # % > , , ' ) ! ! ! , ! ! ! ! ! , ' ~ % # + + + ",
"+ + + # % { ] ^ ] / / ] ( ] ] ] ( _ / ] ] : % # + + + ",
"+ + + # % < [ } } } } [ } [ } } } | 1 } } 2 % # + + + ",
"+ + + # % 3 4 5 4 6 7 8 9 9 9 9 0 a b 4 4 3 % # + + + ",
"+ + + # % c d d d d e f g g g g h d d d d c % # + + + ",
"+ + + # % i j j j k j j l j m j k j m n j i % # + + + ",
"o o o # % p q r s r t u u v w v x r r r s p % # o o o ",
"o o o # % y z A A A B C D D D D E F A G H I % # o o o ",
"o o o # % J K L K M N L O P L O M K K L M Q % # o o o ",
"o o o R % S T T T U V T U T T V T W T W T X % R o o o ",
"o o o Y % Z `  ...+.@...#. .@.@. .@.$. .@.%.% Y o o o ",
"o o o &.% *.=.*.-.;.*.=.>.-.;.>.-.;.*.*.>.=.% &.o o o ",
"o o o ,.$ % % % % % % % % % % % % % % % % % $ ,.o o o ",
"o o o '.).).).).).).).).).).).).).).).).).).).'.o o o ",
"o o o o o o o o o o o o o o o o o o o o o o o o o o o ",
"o o o o o o o o o o o o o o o o o o o o o o o o o o o ",
"o o o o o o o o o o o o o o o o o o o o o o o o o o o ",
"o o o o o o o o o o o o o o o o o o o o o o o o o o o "};
