/* XPM */
static char * menu_inactive_xpm[] = {
"27 24 52 1",
" 	c None",
".	c #A1A1A1",
"+	c #737373",
"@	c #6D6D6D",
"#	c #646464",
"$	c #585858",
"%	c #4E4E4E",
"&	c #F4F4F4",
"*	c #F3F3F3",
"=	c #EDEDED",
"-	c #E9E9E9",
";	c #ECECEC",
">	c #E5E5E5",
",	c #E6E6E6",
"'	c #E7E7E7",
")	c #DDDDDD",
"!	c #E4E4E4",
"~	c #DEDEDE",
"{	c #D7D7D7",
"]	c #E1E1E1",
"^	c #E2E2E2",
"/	c #848484",
"(	c #727272",
"_	c #717171",
":	c #D0D0D0",
"<	c #DFDFDF",
"[	c #838383",
"}	c #C8C8C8",
"|	c #606060",
"1	c #C1C1C1",
"2	c #DBDBDB",
"3	c #DADADA",
"4	c #828282",
"5	c #707070",
"6	c #6F6F6F",
"7	c #818181",
"8	c #BABABA",
"9	c #D8D8D8",
"0	c #B2B2B2",
"a	c #D6D6D6",
"b	c #D5D5D5",
"c	c #6A6A6A",
"d	c #ABABAB",
"e	c #D3D3D3",
"f	c #ACACAC",
"g	c #777777",
"h	c #A4A4A4",
"i	c #D1D1D1",
"j	c #9C9C9C",
"k	c #9D9D9D",
"l	c #878787",
"m	c #747474",
"...........................",
"+++++++++++++++++++++++++++",
"+++++++++++++++++++++++++++",
"+++@###################@+++",
"+++#$%%%%%%%%%%%%%%%%%$#+++",
"+++#%&&&&&&*&*&&*&&*&&%#+++",
"+++#%=---------------;%#+++",
"+++#%>,','',',,,''',,>%#+++",
"+++#%)!!!!!!!!!!!!>!!~%#+++",
"+++#%{]^]^/(____/^^]]{%#+++",
"+++#%:<<<<[_____[<<<<:%#+++",
"+++#%})))))))))))))))}%#+++",
"|||#%12333456555733331%#|||",
"|||#%89999755555799998%#|||",
"|||#%0abaabbabbaaaaba0%#|||",
"|||c%deeeeeeeeeeeeeeef%c|||",
"|||g%h:i::::ii::i:ii:h%g|||",
"|||4%jkjkkjkjkkjkkjjjk%4|||",
"|||l$%%%%%%%%%%%%%%%%%$l|||",
"|||mjjjjjjjjjjjjjjjjjjjm|||",
"|||||||||||||||||||||||||||",
"|||||||||||||||||||||||||||",
"|||||||||||||||||||||||||||",
"|||||||||||||||||||||||||||"};
