/* XPM */
static char * shade_pressed_xpm[] = {
"27 24 105 2",
"  	c None",
". 	c #A4A4B4",
"+ 	c #757793",
"@ 	c #686C88",
"# 	c #525A76",
"$ 	c #485068",
"% 	c #41475B",
"& 	c #969499",
"* 	c #BDBCC3",
"= 	c #BEBDC4",
"- 	c #C0BEC6",
"; 	c #C0BFC6",
"> 	c #C2C0C7",
", 	c #C2C1C7",
"' 	c #C3C2C7",
") 	c #C4C2C8",
"! 	c #C3C2C8",
"~ 	c #C3C1C7",
"{ 	c #C1C1C7",
"] 	c #BFBEC5",
"^ 	c #BEBDC5",
"/ 	c #C0BEC5",
"( 	c #C1C0C7",
"_ 	c #C4C3C8",
": 	c #C5C3C9",
"< 	c #C6C4C9",
"[ 	c #C6C4CA",
"} 	c #C6C3CA",
"| 	c #C5C3C8",
"1 	c #C1BFC6",
"2 	c #C0BFC5",
"3 	c #C1C0C6",
"4 	c #C2C2C7",
"5 	c #C6C5CA",
"6 	c #C7C5CA",
"7 	c #C8C5CA",
"8 	c #C7C6CB",
"9 	c #C4C2C9",
"0 	c #BFBFC5",
"a 	c #C3C1C8",
"b 	c #C7C5CB",
"c 	c #C8C6CB",
"d 	c #CAC7CC",
"e 	c #38B0F0",
"f 	c #22ADF6",
"g 	c #37B0F0",
"h 	c #C9C7CC",
"i 	c #C3C0C7",
"j 	c #C1C0C5",
"k 	c #C5C4CA",
"l 	c #C9C6CC",
"m 	c #CAC8CD",
"n 	c #33B0F2",
"o 	c #0CA9FC",
"p 	c #17ABF9",
"q 	c #32B0F2",
"r 	c #CAC7CD",
"s 	c #C9C6CB",
"t 	c #C4C1C8",
"u 	c #CAC8CC",
"v 	c #39B1F0",
"w 	c #0CAAFC",
"x 	c #32B0F3",
"y 	c #CECBCF",
"z 	c #38B1F1",
"A 	c #C6C5C9",
"B 	c #C5C2C8",
"C 	c #656781",
"D 	c #CCC8CD",
"E 	c #3EB2F0",
"F 	c #39B2F1",
"G 	c #CFCCD0",
"H 	c #D0CDD0",
"I 	c #39B1F1",
"J 	c #CBC8CD",
"K 	c #CCC9CE",
"L 	c #D0CDD1",
"M 	c #D1CED2",
"N 	c #D2CED2",
"O 	c #D2CED1",
"P 	c #CDCACF",
"Q 	c #3FB2F0",
"R 	c #23AEF7",
"S 	c #22AEF7",
"T 	c #C5C4C9",
"U 	c #59607B",
"V 	c #24AEF7",
"W 	c #CCCACE",
"X 	c #C5C3CA",
"Y 	c #686F86",
"Z 	c #C6C3C9",
"` 	c #C8C6CA",
" .	c #CDCBCF",
"..	c #D1CDD1",
"+.	c #CDCACE",
"@.	c #CBC9CD",
"#.	c #737A91",
"$.	c #C7C4CB",
"%.	c #CCC9CD",
"&.	c #CFCCCF",
"*.	c #CECBD0",
"=.	c #C7C4CA",
"-.	c #7B8193",
";.	c #75788D",
">.	c #9498A4",
". . . . . . . . . . . . . . . . . . . . . . . . . . . ",
"+ + + + + + + + + + + + + + + + + + + + + + + + + + + ",
"+ + + + + + + + + + + + + + + + + + + + + + + + + + + ",
"+ + + @ # # # # # # # # # # # # # # # # # # # @ + + + ",
"+ + + # $ % % % % % % % % % % % % % % % % % $ # + + + ",
"+ + + # % & & & & & & & & & & & & & & & & & % # + + + ",
"+ + + # % * = - ; > , ' ) ! ! ~ ~ { ; ] = * % # + + + ",
"+ + + # % ^ / ( ~ ! _ : < [ } | ) ) > 1 ] = % # + + + ",
"+ + + # % 2 3 4 ) [ 5 6 7 8 8 6 [ : 9 ~ 1 0 % # + + + ",
"+ + + # % 3 a 9 < b c d e f g h c 6 : _ i j % # + + + ",
"+ + + # % , ! k 6 l m n o p o q r s 6 < t > % # + + + ",
"+ + + # % a : 6 c u v w x y x w z r c A B , % # + + + ",
"C C C # % ) : b d D E F G H H I E J h b : a % # C C C ",
"C C C # % ! [ c m K y L M N O H y K r 8 [ ) % # C C C ",
"C C C # % ! [ c u P Q R R R R S E K d c T ! % # C C C ",
"C C C U % ) [ c m K Q V R R R R Q W d b X a % U C C C ",
"C C C Y % ) Z ` d K  .G L ..L G +.@.h 6 : a % Y C C C ",
"C C C #.% 4 : $.s m %. .&.*.*.y K u c =.: , % #.C C C ",
"C C C -.$ % % % % % % % % % % % % % % % % % $ -.C C C ",
"C C C ;.>.>.>.>.>.>.>.>.>.>.>.>.>.>.>.>.>.>.>.;.C C C ",
"C C C C C C C C C C C C C C C C C C C C C C C C C C C ",
"C C C C C C C C C C C C C C C C C C C C C C C C C C C ",
"C C C C C C C C C C C C C C C C C C C C C C C C C C C ",
"C C C C C C C C C C C C C C C C C C C C C C C C C C C "};
