/* XPM */
static char * shade_toggled_pressed_xpm[] = {
"27 24 106 2",
"  	c None",
". 	c #A4A4B4",
"+ 	c #757793",
"@ 	c #686C88",
"# 	c #525A76",
"$ 	c #485068",
"% 	c #41475B",
"& 	c #969499",
"* 	c #BDBCC3",
"= 	c #BEBDC4",
"- 	c #C0BEC6",
"; 	c #C0BFC6",
"> 	c #C2C0C7",
", 	c #C2C1C7",
"' 	c #C3C2C7",
") 	c #C4C2C8",
"! 	c #C3C2C8",
"~ 	c #C3C1C7",
"{ 	c #C1C1C7",
"] 	c #BFBEC5",
"^ 	c #BEBDC5",
"/ 	c #C0BEC5",
"( 	c #C1C0C7",
"_ 	c #C4C3C8",
": 	c #C5C3C9",
"< 	c #C6C4C9",
"[ 	c #C6C4CA",
"} 	c #C6C3CA",
"| 	c #C5C3C8",
"1 	c #C1BFC6",
"2 	c #C0BFC5",
"3 	c #C1C0C6",
"4 	c #C2C2C7",
"5 	c #C6C5CA",
"6 	c #C7C5CA",
"7 	c #C8C5CA",
"8 	c #C7C6CB",
"9 	c #C4C2C9",
"0 	c #BFBFC5",
"a 	c #C3C1C8",
"b 	c #C7C5CB",
"c 	c #3DB1EE",
"d 	c #22ADF6",
"e 	c #21ADF6",
"f 	c #3DB1EF",
"g 	c #C3C0C7",
"h 	c #C1C0C5",
"i 	c #C5C4CA",
"j 	c #C9C6CC",
"k 	c #3EB1EF",
"l 	c #23ADF6",
"m 	c #C9C6CB",
"n 	c #C4C1C8",
"o 	c #C8C6CB",
"p 	c #CAC8CC",
"q 	c #CCC9CD",
"r 	c #CDCACE",
"s 	c #CECBCF",
"t 	c #CECACF",
"u 	c #CBC9CE",
"v 	c #CAC7CD",
"w 	c #C6C5C9",
"x 	c #C5C2C8",
"y 	c #656781",
"z 	c #CAC7CC",
"A 	c #CCC8CD",
"B 	c #3EB2F0",
"C 	c #39B2F1",
"D 	c #CFCCD0",
"E 	c #D0CDD0",
"F 	c #39B1F1",
"G 	c #CBC8CD",
"H 	c #C9C7CC",
"I 	c #CAC8CD",
"J 	c #CCC9CE",
"K 	c #3AB1F1",
"L 	c #0DAAFC",
"M 	c #34B1F3",
"N 	c #D2CED2",
"O 	c #0CAAFC",
"P 	c #CDCACF",
"Q 	c #CFCBD0",
"R 	c #18ACF9",
"S 	c #33B1F3",
"T 	c #C5C4C9",
"U 	c #59607B",
"V 	c #D1CDD1",
"W 	c #3AB2F2",
"X 	c #23AEF7",
"Y 	c #39B2F2",
"Z 	c #CCCACE",
"` 	c #C5C3CA",
" .	c #686F86",
"..	c #C6C3C9",
"+.	c #C8C6CA",
"@.	c #CDCBCF",
"#.	c #D0CDD1",
"$.	c #CBC9CD",
"%.	c #737A91",
"&.	c #C7C4CB",
"*.	c #CFCCCF",
"=.	c #CECBD0",
"-.	c #C7C4CA",
";.	c #7B8193",
">.	c #75788D",
",.	c #9498A4",
". . . . . . . . . . . . . . . . . . . . . . . . . . . ",
"+ + + + + + + + + + + + + + + + + + + + + + + + + + + ",
"+ + + + + + + + + + + + + + + + + + + + + + + + + + + ",
"+ + + @ # # # # # # # # # # # # # # # # # # # @ + + + ",
"+ + + # $ % % % % % % % % % % % % % % % % % $ # + + + ",
"+ + + # % & & & & & & & & & & & & & & & & & % # + + + ",
"+ + + # % * = - ; > , ' ) ! ! ~ ~ { ; ] = * % # + + + ",
"+ + + # % ^ / ( ~ ! _ : < [ } | ) ) > 1 ] = % # + + + ",
"+ + + # % 2 3 4 ) [ 5 6 7 8 8 6 [ : 9 ~ 1 0 % # + + + ",
"+ + + # % 3 a 9 < b c d e d e e f 6 : _ g h % # + + + ",
"+ + + # % , ! i 6 j k l d d d d f m 6 < n > % # + + + ",
"+ + + # % a : 6 o p q r s s t r u v o w x , % # + + + ",
"y y y # % ) : b z A B C D E E F B G H b : a % # y y y ",
"y y y # % ! [ o I J K L M N M O F J v 8 [ ) % # y y y ",
"y y y # % ! [ o p P Q M O R O S s J z o T ! % # y y y ",
"y y y U % ) [ o I J s V W X Y E s Z z b ` a % U y y y ",
"y y y  .% ) ..+.z J @.D #.V #.D r $.H 6 : a %  .y y y ",
"y y y %.% 4 : &.m I q @.*.=.=.s J p o -.: , % %.y y y ",
"y y y ;.$ % % % % % % % % % % % % % % % % % $ ;.y y y ",
"y y y >.,.,.,.,.,.,.,.,.,.,.,.,.,.,.,.,.,.,.,.>.y y y ",
"y y y y y y y y y y y y y y y y y y y y y y y y y y y ",
"y y y y y y y y y y y y y y y y y y y y y y y y y y y ",
"y y y y y y y y y y y y y y y y y y y y y y y y y y y ",
"y y y y y y y y y y y y y y y y y y y y y y y y y y y "};
