/* XPM */
static char * shade_prelight_xpm[] = {
"27 24 111 2",
"  	c None",
". 	c #A4A4B4",
"+ 	c #757793",
"@ 	c #686C88",
"# 	c #525A76",
"$ 	c #485068",
"% 	c #41475B",
"& 	c #F2F2F5",
"* 	c #F3F2F5",
"= 	c #F2F2F4",
"- 	c #F2F1F5",
"; 	c #F3F1F4",
"> 	c #EAEAEF",
", 	c #EAE8E9",
"' 	c #E9E8EA",
") 	c #EAE7EA",
"! 	c #EAE8EA",
"~ 	c #EAEAEE",
"{ 	c #E1E3E8",
"] 	c #E7E5E7",
"^ 	c #E7E5E8",
"/ 	c #E7E6E7",
"( 	c #E8E5E7",
"_ 	c #E8E5E8",
": 	c #E2E3E8",
"< 	c #D9DBE1",
"[ 	c #E5E3E4",
"} 	c #E5E3E5",
"| 	c #40B8F7",
"1 	c #26B1FA",
"2 	c #3FB8F7",
"3 	c #E4E3E4",
"4 	c #E5E4E5",
"5 	c #D9DBE2",
"6 	c #D2D4DB",
"7 	c #E2E0E2",
"8 	c #E3E1E2",
"9 	c #E2E1E2",
"0 	c #39B6F7",
"a 	c #0DABFD",
"b 	c #19AEFB",
"c 	c #38B6F7",
"d 	c #E2E0E3",
"e 	c #E3E1E3",
"f 	c #E2E1E3",
"g 	c #CACCD5",
"h 	c #E0DEE0",
"i 	c #3EB7F6",
"j 	c #37B5F7",
"k 	c #DFDEDF",
"l 	c #C1C5CE",
"m 	c #DDDCDD",
"n 	c #DDDCDE",
"o 	c #43B7F4",
"p 	c #3DB6F5",
"q 	c #DEDBDD",
"r 	c #DEDCDE",
"s 	c #DEDCDD",
"t 	c #656781",
"u 	c #BABDC8",
"v 	c #DBDADA",
"w 	c #DBD9DB",
"x 	c #DAD9DB",
"y 	c #DADADB",
"z 	c #DBD9DA",
"A 	c #DBDADB",
"B 	c #B1B5C2",
"C 	c #D9D7D9",
"D 	c #D8D7D8",
"E 	c #42B6F3",
"F 	c #24AFF8",
"G 	c #23AFF8",
"H 	c #41B6F3",
"I 	c #D8D6D9",
"J 	c #D9D7D8",
"K 	c #D8D7D9",
"L 	c #B1B6C2",
"M 	c #A8AEBB",
"N 	c #D6D5D6",
"O 	c #D6D4D6",
"P 	c #D5D5D6",
"Q 	c #41B5F1",
"R 	c #24AFF7",
"S 	c #41B5F2",
"T 	c #A9AEBB",
"U 	c #59607B",
"V 	c #A1A6B5",
"W 	c #D3D2D3",
"X 	c #D3D2D4",
"Y 	c #D4D2D4",
"Z 	c #D4D2D3",
"` 	c #A1A6B6",
" .	c #686F86",
"..	c #989FAF",
"+.	c #D0CFD0",
"@.	c #D1D0D1",
"#.	c #D1CFD0",
"$.	c #D0D0D0",
"%.	c #D1CFD1",
"&.	c #D0D0D1",
"*.	c #D1D0D0",
"=.	c #999EAE",
"-.	c #737A91",
";.	c #9097A8",
">.	c #9197A8",
",.	c #9097A9",
"'.	c #9198A8",
").	c #9098A8",
"!.	c #7B8193",
"~.	c #75788D",
"{.	c #9498A4",
". . . . . . . . . . . . . . . . . . . . . . . . . . . ",
"+ + + + + + + + + + + + + + + + + + + + + + + + + + + ",
"+ + + + + + + + + + + + + + + + + + + + + + + + + + + ",
"+ + + @ # # # # # # # # # # # # # # # # # # # @ + + + ",
"+ + + # $ % % % % % % % % % % % % % % % % % $ # + + + ",
"+ + + # % & * & & & & = & - & & - * & ; * & % # + + + ",
"+ + + # % > , , ' ) ! ! ! , ! ! ! ! ! , ' ~ % # + + + ",
"+ + + # % { ] ^ ] / / ] ( ] ] ] ( _ / ] ] : % # + + + ",
"+ + + # % < [ } } } } [ | 1 2 } } 3 4 } } 5 % # + + + ",
"+ + + # % 6 7 8 7 9 8 0 a b a c d e f 7 7 6 % # + + + ",
"+ + + # % g h h h h i a j k j a i h h h h g % # + + + ",
"+ + + # % l m m m n o p q m r p o m r s m l % # + + + ",
"t t t # % u v w x w y z z A y A A w w w x u % # t t t ",
"t t t # % B C D D D E F F F F G H I D J K L % # t t t ",
"t t t # % M N O N P Q R R R F R S N N O P T % # t t t ",
"t t t U % V W W W X Y W X W W Y W Z W Z W ` % U t t t ",
"t t t  .% ..+.@.#.$.%.#.&.@.%.%.@.%.*.@.%.=.%  .t t t ",
"t t t -.% ;.>.;.,.'.;.>.).,.'.).,.'.;.;.).>.% -.t t t ",
"t t t !.$ % % % % % % % % % % % % % % % % % $ !.t t t ",
"t t t ~.{.{.{.{.{.{.{.{.{.{.{.{.{.{.{.{.{.{.{.~.t t t ",
"t t t t t t t t t t t t t t t t t t t t t t t t t t t ",
"t t t t t t t t t t t t t t t t t t t t t t t t t t t ",
"t t t t t t t t t t t t t t t t t t t t t t t t t t t ",
"t t t t t t t t t t t t t t t t t t t t t t t t t t t "};
