/* XPM */
static char * shade_toggled_prelight_xpm[] = {
"27 24 115 2",
"  	c None",
". 	c #A4A4B4",
"+ 	c #757793",
"@ 	c #686C88",
"# 	c #525A76",
"$ 	c #485068",
"% 	c #41475B",
"& 	c #F2F2F5",
"* 	c #F3F2F5",
"= 	c #F2F2F4",
"- 	c #F2F1F5",
"; 	c #F3F1F4",
"> 	c #EAEAEF",
", 	c #EAE8E9",
"' 	c #E9E8EA",
") 	c #EAE7EA",
"! 	c #EAE8EA",
"~ 	c #EAEAEE",
"{ 	c #E1E3E8",
"] 	c #E7E5E7",
"^ 	c #E7E5E8",
"/ 	c #E7E6E7",
"( 	c #E8E5E7",
"_ 	c #E8E5E8",
": 	c #E2E3E8",
"< 	c #D9DBE1",
"[ 	c #E5E3E4",
"} 	c #E5E3E5",
"| 	c #46BAF6",
"1 	c #27B2FA",
"2 	c #26B1FA",
"3 	c #46BAF7",
"4 	c #E4E3E4",
"5 	c #E5E4E5",
"6 	c #D9DBE2",
"7 	c #D2D4DB",
"8 	c #E2E0E2",
"9 	c #E3E1E2",
"0 	c #E2E1E2",
"a 	c #46B9F6",
"b 	c #27B1F9",
"c 	c #45B9F6",
"d 	c #E3E1E3",
"e 	c #E2E1E3",
"f 	c #CACCD5",
"g 	c #E0DEE0",
"h 	c #DFDEE0",
"i 	c #E0DEDF",
"j 	c #E0DFE0",
"k 	c #DFDEDF",
"l 	c #C1C5CE",
"m 	c #DDDCDD",
"n 	c #DDDCDE",
"o 	c #43B7F4",
"p 	c #3DB6F5",
"q 	c #DEDBDD",
"r 	c #DEDCDE",
"s 	c #DEDCDD",
"t 	c #656781",
"u 	c #BABDC8",
"v 	c #DBDADA",
"w 	c #DBD9DB",
"x 	c #DAD9DB",
"y 	c #3DB6F4",
"z 	c #0DABFC",
"A 	c #36B4F5",
"B 	c #DBDADB",
"C 	c #0CAAFC",
"D 	c #3CB5F4",
"E 	c #B1B5C2",
"F 	c #D9D7D9",
"G 	c #D8D7D8",
"H 	c #D9D7D8",
"I 	c #36B3F5",
"J 	c #18ADFA",
"K 	c #35B3F5",
"L 	c #D8D6D9",
"M 	c #D8D7D9",
"N 	c #B1B6C2",
"O 	c #A8AEBB",
"P 	c #D6D5D6",
"Q 	c #D6D4D6",
"R 	c #D5D5D6",
"S 	c #D5D4D5",
"T 	c #3BB4F3",
"U 	c #24AFF7",
"V 	c #3AB4F3",
"W 	c #D6D5D5",
"X 	c #A9AEBB",
"Y 	c #59607B",
"Z 	c #A1A6B5",
"` 	c #D3D2D3",
" .	c #D3D2D4",
"..	c #D4D2D4",
"+.	c #D4D2D3",
"@.	c #A1A6B6",
"#.	c #686F86",
"$.	c #989FAF",
"%.	c #D0CFD0",
"&.	c #D1D0D1",
"*.	c #D1CFD0",
"=.	c #D0D0D0",
"-.	c #D1CFD1",
";.	c #D0D0D1",
">.	c #D1D0D0",
",.	c #999EAE",
"'.	c #737A91",
").	c #9097A8",
"!.	c #9197A8",
"~.	c #9097A9",
"{.	c #9198A8",
"].	c #9098A8",
"^.	c #7B8193",
"/.	c #75788D",
"(.	c #9498A4",
". . . . . . . . . . . . . . . . . . . . . . . . . . . ",
"+ + + + + + + + + + + + + + + + + + + + + + + + + + + ",
"+ + + + + + + + + + + + + + + + + + + + + + + + + + + ",
"+ + + @ # # # # # # # # # # # # # # # # # # # @ + + + ",
"+ + + # $ % % % % % % % % % % % % % % % % % $ # + + + ",
"+ + + # % & * & & & & = & - & & - * & ; * & % # + + + ",
"+ + + # % > , , ' ) ! ! ! , ! ! ! ! ! , ' ~ % # + + + ",
"+ + + # % { ] ^ ] / / ] ( ] ] ] ( _ / ] ] : % # + + + ",
"+ + + # % < [ } } } | 1 2 2 2 2 3 4 5 } } 6 % # + + + ",
"+ + + # % 7 8 9 8 0 a b 2 2 2 2 c d e 8 8 7 % # + + + ",
"+ + + # % f g g g g h i j k h i h g g g g f % # + + + ",
"+ + + # % l m m m n o p q m r p o m r s m l % # + + + ",
"t t t # % u v w x w y z A B A C D w w w x u % # t t t ",
"t t t # % E F G G G H I C J C K G L G H M N % # t t t ",
"t t t # % O P Q P R S Q T U V W R P P Q R X % # t t t ",
"t t t Y % Z ` ` `  ...`  .` ` ..` +.` +.` @.% Y t t t ",
"t t t #.% $.%.&.*.=.-.*.;.&.-.-.&.-.>.&.-.,.% #.t t t ",
"t t t '.% ).!.).~.{.).!.].~.{.].~.{.).).].!.% '.t t t ",
"t t t ^.$ % % % % % % % % % % % % % % % % % $ ^.t t t ",
"t t t /.(.(.(.(.(.(.(.(.(.(.(.(.(.(.(.(.(.(.(./.t t t ",
"t t t t t t t t t t t t t t t t t t t t t t t t t t t ",
"t t t t t t t t t t t t t t t t t t t t t t t t t t t ",
"t t t t t t t t t t t t t t t t t t t t t t t t t t t ",
"t t t t t t t t t t t t t t t t t t t t t t t t t t t "};
