/* XPM */
static char * shade_active_xpm[] = {
"27 24 111 2",
"  	c None",
". 	c #A4A4B4",
"+ 	c #757793",
"@ 	c #686C88",
"# 	c #525A76",
"$ 	c #485068",
"% 	c #41475B",
"& 	c #F2F2F5",
"* 	c #F3F2F5",
"= 	c #F2F2F4",
"- 	c #F2F1F5",
"; 	c #F3F1F4",
"> 	c #EAEAEF",
", 	c #EAE8E9",
"' 	c #E9E8EA",
") 	c #EAE7EA",
"! 	c #EAE8EA",
"~ 	c #EAEAEE",
"{ 	c #E1E3E8",
"] 	c #E7E5E7",
"^ 	c #E7E5E8",
"/ 	c #E7E6E7",
"( 	c #E8E5E7",
"_ 	c #E8E5E8",
": 	c #E2E3E8",
"< 	c #D9DBE1",
"[ 	c #E5E3E4",
"} 	c #E5E3E5",
"| 	c #7A7A89",
"1 	c #69697B",
"2 	c #797989",
"3 	c #E4E3E4",
"4 	c #E5E4E5",
"5 	c #D9DBE2",
"6 	c #D2D4DB",
"7 	c #E2E0E2",
"8 	c #E3E1E2",
"9 	c #E2E1E2",
"0 	c #757585",
"a 	c #58596D",
"b 	c #606174",
"c 	c #747585",
"d 	c #E2E0E3",
"e 	c #E3E1E3",
"f 	c #E2E1E3",
"g 	c #CACCD5",
"h 	c #E0DEE0",
"i 	c #787888",
"j 	c #737484",
"k 	c #DFDEDF",
"l 	c #737384",
"m 	c #777887",
"n 	c #C1C5CE",
"o 	c #DDDCDD",
"p 	c #DDDCDE",
"q 	c #7B7B8A",
"r 	c #777787",
"s 	c #DEDBDD",
"t 	c #DEDCDE",
"u 	c #DEDCDD",
"v 	c #656781",
"w 	c #BABDC8",
"x 	c #DBDADA",
"y 	c #DBD9DB",
"z 	c #DAD9DB",
"A 	c #DADADB",
"B 	c #DBD9DA",
"C 	c #DBDADB",
"D 	c #B1B5C2",
"E 	c #D9D7D9",
"F 	c #D8D7D8",
"G 	c #797988",
"H 	c #666779",
"I 	c #676779",
"J 	c #666778",
"K 	c #D8D6D9",
"L 	c #D9D7D8",
"M 	c #D8D7D9",
"N 	c #B1B6C2",
"O 	c #A8AEBB",
"P 	c #D6D5D6",
"Q 	c #D6D4D6",
"R 	c #D5D5D6",
"S 	c #787988",
"T 	c #A9AEBB",
"U 	c #59607B",
"V 	c #A1A6B5",
"W 	c #D3D2D3",
"X 	c #D3D2D4",
"Y 	c #D4D2D4",
"Z 	c #D4D2D3",
"` 	c #A1A6B6",
" .	c #686F86",
"..	c #989FAF",
"+.	c #D0CFD0",
"@.	c #D1D0D1",
"#.	c #D1CFD0",
"$.	c #D0D0D0",
"%.	c #D1CFD1",
"&.	c #D0D0D1",
"*.	c #D1D0D0",
"=.	c #999EAE",
"-.	c #737A91",
";.	c #9097A8",
">.	c #9197A8",
",.	c #9097A9",
"'.	c #9198A8",
").	c #9098A8",
"!.	c #7B8193",
"~.	c #75788D",
"{.	c #9498A4",
". . . . . . . . . . . . . . . . . . . . . . . . . . . ",
"+ + + + + + + + + + + + + + + + + + + + + + + + + + + ",
"+ + + + + + + + + + + + + + + + + + + + + + + + + + + ",
"+ + + @ # # # # # # # # # # # # # # # # # # # @ + + + ",
"+ + + # $ % % % % % % % % % % % % % % % % % $ # + + + ",
"+ + + # % & * & & & & = & - & & - * & ; * & % # + + + ",
"+ + + # % > , , ' ) ! ! ! , ! ! ! ! ! , ' ~ % # + + + ",
"+ + + # % { ] ^ ] / / ] ( ] ] ] ( _ / ] ] : % # + + + ",
"+ + + # % < [ } } } } [ | 1 2 } } 3 4 } } 5 % # + + + ",
"+ + + # % 6 7 8 7 9 8 0 a b a c d e f 7 7 6 % # + + + ",
"+ + + # % g h h h h i a j k l a m h h h h g % # + + + ",
"+ + + # % n o o o p q r s o t r q o t u o n % # + + + ",
"v v v # % w x y z y A B B C A C C y y y z w % # v v v ",
"v v v # % D E F F F G H I H H J G K F L M N % # v v v ",
"v v v # % O P Q P R G I J J J J S P P Q R T % # v v v ",
"v v v U % V W W W X Y W X W W Y W Z W Z W ` % U v v v ",
"v v v  .% ..+.@.#.$.%.#.&.@.%.%.@.%.*.@.%.=.%  .v v v ",
"v v v -.% ;.>.;.,.'.;.>.).,.'.).,.'.;.;.).>.% -.v v v ",
"v v v !.$ % % % % % % % % % % % % % % % % % $ !.v v v ",
"v v v ~.{.{.{.{.{.{.{.{.{.{.{.{.{.{.{.{.{.{.{.~.v v v ",
"v v v v v v v v v v v v v v v v v v v v v v v v v v v ",
"v v v v v v v v v v v v v v v v v v v v v v v v v v v ",
"v v v v v v v v v v v v v v v v v v v v v v v v v v v ",
"v v v v v v v v v v v v v v v v v v v v v v v v v v v "};
