/* XPM */
static char * shade_toggled_inactive_xpm[] = {
"27 24 60 1",
" 	c None",
".	c #A1A1A1",
"+	c #737373",
"@	c #6D6D6D",
"#	c #646464",
"$	c #585858",
"%	c #4E4E4E",
"&	c #F4F4F4",
"*	c #F3F3F3",
"=	c #EDEDED",
"-	c #E9E9E9",
";	c #ECECEC",
">	c #E5E5E5",
",	c #E6E6E6",
"'	c #E7E7E7",
")	c #DDDDDD",
"!	c #E4E4E4",
"~	c #858585",
"{	c #727272",
"]	c #848484",
"^	c #DEDEDE",
"/	c #D7D7D7",
"(	c #E1E1E1",
"_	c #E2E2E2",
":	c #717171",
"<	c #D0D0D0",
"[	c #DFDFDF",
"}	c #E0E0E0",
"|	c #C8C8C8",
"1	c #828282",
"2	c #7F7F7F",
"3	c #606060",
"4	c #C1C1C1",
"5	c #DBDBDB",
"6	c #DADADA",
"7	c #626262",
"8	c #7A7A7A",
"9	c #7B7B7B",
"0	c #7E7E7E",
"a	c #BABABA",
"b	c #D8D8D8",
"c	c #696969",
"d	c #797979",
"e	c #B2B2B2",
"f	c #D6D6D6",
"g	c #D5D5D5",
"h	c #7D7D7D",
"i	c #6F6F6F",
"j	c #7C7C7C",
"k	c #6A6A6A",
"l	c #ABABAB",
"m	c #D3D3D3",
"n	c #ACACAC",
"o	c #777777",
"p	c #A4A4A4",
"q	c #D1D1D1",
"r	c #9C9C9C",
"s	c #9D9D9D",
"t	c #878787",
"u	c #747474",
"...........................",
"+++++++++++++++++++++++++++",
"+++++++++++++++++++++++++++",
"+++@###################@+++",
"+++#$%%%%%%%%%%%%%%%%%$#+++",
"+++#%&&&&&&*&*&&*&&*&&%#+++",
"+++#%=---------------;%#+++",
"+++#%>,','',',,,''',,>%#+++",
"+++#%)!!!!~{{{{{]!>!!^%#+++",
"+++#%/(_(_]{::::]__((/%#+++",
"+++#%<[[[[[[}[[[[[[[[<%#+++",
"+++#%|))))12)))21))))|%#+++",
"333#%45666278597066664%#333",
"333#%abbbbb87c7dbbbbba%#333",
"333#%efgffgghijffffgfe%#333",
"333k%lmmmmmmmmmmmmmmmn%k333",
"333o%p<q<<<<qq<<q<qq<p%o333",
"3331%rsrssrsrssrssrrrs%1333",
"333t$%%%%%%%%%%%%%%%%%$t333",
"333urrrrrrrrrrrrrrrrrrru333",
"333333333333333333333333333",
"333333333333333333333333333",
"333333333333333333333333333",
"333333333333333333333333333"};
