/* XPM */
static char * shade_toggled_active_xpm[] = {
"27 24 116 2",
"  	c None",
". 	c #A4A4B4",
"+ 	c #757793",
"@ 	c #686C88",
"# 	c #525A76",
"$ 	c #485068",
"% 	c #41475B",
"& 	c #F2F2F5",
"* 	c #F3F2F5",
"= 	c #F2F2F4",
"- 	c #F2F1F5",
"; 	c #F3F1F4",
"> 	c #EAEAEF",
", 	c #EAE8E9",
"' 	c #E9E8EA",
") 	c #EAE7EA",
"! 	c #EAE8EA",
"~ 	c #EAEAEE",
"{ 	c #E1E3E8",
"] 	c #E7E5E7",
"^ 	c #E7E5E8",
"/ 	c #E7E6E7",
"( 	c #E8E5E7",
"_ 	c #E8E5E8",
": 	c #E2E3E8",
"< 	c #D9DBE1",
"[ 	c #E5E3E4",
"} 	c #E5E3E5",
"| 	c #7E7E8D",
"1 	c #696A7B",
"2 	c #69697B",
"3 	c #7D7D8C",
"4 	c #E4E3E4",
"5 	c #E5E4E5",
"6 	c #D9DBE2",
"7 	c #D2D4DB",
"8 	c #E2E0E2",
"9 	c #E3E1E2",
"0 	c #E2E1E2",
"a 	c #68697B",
"b 	c #68697A",
"c 	c #7C7C8C",
"d 	c #E3E1E3",
"e 	c #E2E1E3",
"f 	c #CACCD5",
"g 	c #E0DEE0",
"h 	c #DFDEE0",
"i 	c #E0DEDF",
"j 	c #E0DFE0",
"k 	c #DFDEDF",
"l 	c #C1C5CE",
"m 	c #DDDCDD",
"n 	c #DDDCDE",
"o 	c #7B7B8A",
"p 	c #777787",
"q 	c #DEDBDD",
"r 	c #DEDCDE",
"s 	c #DEDCDD",
"t 	c #656781",
"u 	c #BABDC8",
"v 	c #DBDADA",
"w 	c #DBD9DB",
"x 	c #DAD9DB",
"y 	c #767787",
"z 	c #58596D",
"A 	c #727383",
"B 	c #DBDADB",
"C 	c #58596C",
"D 	c #767786",
"E 	c #B1B5C2",
"F 	c #D9D7D9",
"G 	c #D8D7D8",
"H 	c #D9D7D8",
"I 	c #727282",
"J 	c #58586C",
"K 	c #5F6072",
"L 	c #717282",
"M 	c #D8D6D9",
"N 	c #D8D7D9",
"O 	c #B1B6C2",
"P 	c #A8AEBB",
"Q 	c #D6D5D6",
"R 	c #D6D4D6",
"S 	c #D5D5D6",
"T 	c #D5D4D5",
"U 	c #757584",
"V 	c #666778",
"W 	c #747484",
"X 	c #D6D5D5",
"Y 	c #A9AEBB",
"Z 	c #59607B",
"` 	c #A1A6B5",
" .	c #D3D2D3",
"..	c #D3D2D4",
"+.	c #D4D2D4",
"@.	c #D4D2D3",
"#.	c #A1A6B6",
"$.	c #686F86",
"%.	c #989FAF",
"&.	c #D0CFD0",
"*.	c #D1D0D1",
"=.	c #D1CFD0",
"-.	c #D0D0D0",
";.	c #D1CFD1",
">.	c #D0D0D1",
",.	c #D1D0D0",
"'.	c #999EAE",
").	c #737A91",
"!.	c #9097A8",
"~.	c #9197A8",
"{.	c #9097A9",
"].	c #9198A8",
"^.	c #9098A8",
"/.	c #7B8193",
"(.	c #75788D",
"_.	c #9498A4",
". . . . . . . . . . . . . . . . . . . . . . . . . . . ",
"+ + + + + + + + + + + + + + + + + + + + + + + + + + + ",
"+ + + + + + + + + + + + + + + + + + + + + + + + + + + ",
"+ + + @ # # # # # # # # # # # # # # # # # # # @ + + + ",
"+ + + # $ % % % % % % % % % % % % % % % % % $ # + + + ",
"+ + + # % & * & & & & = & - & & - * & ; * & % # + + + ",
"+ + + # % > , , ' ) ! ! ! , ! ! ! ! ! , ' ~ % # + + + ",
"+ + + # % { ] ^ ] / / ] ( ] ] ] ( _ / ] ] : % # + + + ",
"+ + + # % < [ } } } | 1 2 2 2 2 3 4 5 } } 6 % # + + + ",
"+ + + # % 7 8 9 8 0 3 2 a a b b c d e 8 8 7 % # + + + ",
"+ + + # % f g g g g h i j k h i h g g g g f % # + + + ",
"+ + + # % l m m m n o p q m r p o m r s m l % # + + + ",
"t t t # % u v w x w y z A B A C D w w w x u % # t t t ",
"t t t # % E F G G G H I J K J L G M G H N O % # t t t ",
"t t t # % P Q R Q S T R U V W X S Q Q R S Y % # t t t ",
"t t t Z % `  . . ...+. ... . .+. .@. .@. .#.% Z t t t ",
"t t t $.% %.&.*.=.-.;.=.>.*.;.;.*.;.,.*.;.'.% $.t t t ",
"t t t ).% !.~.!.{.].!.~.^.{.].^.{.].!.!.^.~.% ).t t t ",
"t t t /.$ % % % % % % % % % % % % % % % % % $ /.t t t ",
"t t t (._._._._._._._._._._._._._._._._._._._.(.t t t ",
"t t t t t t t t t t t t t t t t t t t t t t t t t t t ",
"t t t t t t t t t t t t t t t t t t t t t t t t t t t ",
"t t t t t t t t t t t t t t t t t t t t t t t t t t t ",
"t t t t t t t t t t t t t t t t t t t t t t t t t t t "};
