/* XPM */
static char * shade_inactive_xpm[] = {
"27 24 55 1",
" 	c None",
".	c #A1A1A1",
"+	c #737373",
"@	c #6D6D6D",
"#	c #646464",
"$	c #585858",
"%	c #4E4E4E",
"&	c #F4F4F4",
"*	c #F3F3F3",
"=	c #EDEDED",
"-	c #E9E9E9",
";	c #ECECEC",
">	c #E5E5E5",
",	c #E6E6E6",
"'	c #E7E7E7",
")	c #DDDDDD",
"!	c #E4E4E4",
"~	c #818181",
"{	c #727272",
"]	c #DEDEDE",
"^	c #D7D7D7",
"/	c #E1E1E1",
"(	c #E2E2E2",
"_	c #7D7D7D",
":	c #626262",
"<	c #6A6A6A",
"[	c #7C7C7C",
"}	c #D0D0D0",
"|	c #DFDFDF",
"1	c #808080",
"2	c #7B7B7B",
"3	c #7F7F7F",
"4	c #C8C8C8",
"5	c #828282",
"6	c #606060",
"7	c #C1C1C1",
"8	c #DBDBDB",
"9	c #DADADA",
"0	c #BABABA",
"a	c #D8D8D8",
"b	c #707070",
"c	c #6F6F6F",
"d	c #B2B2B2",
"e	c #D6D6D6",
"f	c #D5D5D5",
"g	c #ABABAB",
"h	c #D3D3D3",
"i	c #ACACAC",
"j	c #777777",
"k	c #A4A4A4",
"l	c #D1D1D1",
"m	c #9C9C9C",
"n	c #9D9D9D",
"o	c #878787",
"p	c #747474",
"...........................",
"+++++++++++++++++++++++++++",
"+++++++++++++++++++++++++++",
"+++@###################@+++",
"+++#$%%%%%%%%%%%%%%%%%$#+++",
"+++#%&&&&&&*&*&&*&&*&&%#+++",
"+++#%=---------------;%#+++",
"+++#%>,','',',,,''',,>%#+++",
"+++#%)!!!!!!~{~!!!>!!]%#+++",
"+++#%^/(/((_:<:[(((//^%#+++",
"+++#%}||||1:2|2:3||||}%#+++",
"+++#%4))))53)))35))))4%#+++",
"666#%78999899888899997%#666",
"666#%0aaaa~bbbbc1aaaa0%#666",
"666#%defee1bcccc1eefed%#666",
"666<%ghhhhhhhhhhhhhhhi%<666",
"666j%k}l}}}}ll}}l}ll}k%j666",
"6665%mnmnnmnmnnmnnmmmn%5666",
"666o$%%%%%%%%%%%%%%%%%$o666",
"666pmmmmmmmmmmmmmmmmmmmp666",
"666666666666666666666666666",
"666666666666666666666666666",
"666666666666666666666666666",
"666666666666666666666666666"};
