/* XPM */
static char * stick_toggled_active_xpm[] = {
"27 24 110 2",
"  	c None",
". 	c #A4A4B4",
"+ 	c #757793",
"@ 	c #686C88",
"# 	c #525A76",
"$ 	c #485068",
"% 	c #41475B",
"& 	c #F2F2F5",
"* 	c #F3F2F5",
"= 	c #F2F2F4",
"- 	c #F2F1F5",
"; 	c #F3F1F4",
"> 	c #EAEAEF",
", 	c #EAE8E9",
"' 	c #E9E8EA",
") 	c #EAE7EA",
"! 	c #EAE8EA",
"~ 	c #EAEAEE",
"{ 	c #E1E3E8",
"] 	c #E7E5E7",
"^ 	c #E7E5E8",
"/ 	c #E7E6E7",
"( 	c #E8E5E7",
"_ 	c #E8E5E8",
": 	c #E2E3E8",
"< 	c #D9DBE1",
"[ 	c #E5E3E4",
"} 	c #E5E3E5",
"| 	c #7A7A89",
"1 	c #69697B",
"2 	c #797989",
"3 	c #E4E3E4",
"4 	c #E5E4E5",
"5 	c #D9DBE2",
"6 	c #D2D4DB",
"7 	c #E2E0E2",
"8 	c #E3E1E2",
"9 	c #E2E1E2",
"0 	c #757585",
"a 	c #545569",
"b 	c #505166",
"c 	c #747585",
"d 	c #E2E0E3",
"e 	c #E3E1E3",
"f 	c #E2E1E3",
"g 	c #CACCD5",
"h 	c #E0DEE0",
"i 	c #787888",
"j 	c #535469",
"k 	c #5F6073",
"l 	c #777887",
"m 	c #C1C5CE",
"n 	c #DDDCDD",
"o 	c #DDDCDE",
"p 	c #67687A",
"q 	c #DEDCDE",
"r 	c #DEDCDD",
"s 	c #656781",
"t 	c #BABDC8",
"u 	c #DBDADA",
"v 	c #DBD9DB",
"w 	c #DAD9DB",
"x 	c #767786",
"y 	c #5F6072",
"z 	c #767686",
"A 	c #B1B5C2",
"B 	c #D9D7D9",
"C 	c #D8D7D8",
"D 	c #D9D7D8",
"E 	c #727282",
"F 	c #717282",
"G 	c #D8D6D9",
"H 	c #D8D7D9",
"I 	c #B1B6C2",
"J 	c #A8AEBB",
"K 	c #D6D5D6",
"L 	c #D6D4D6",
"M 	c #D5D5D6",
"N 	c #D5D4D5",
"O 	c #757584",
"P 	c #666678",
"Q 	c #747484",
"R 	c #D6D5D5",
"S 	c #A9AEBB",
"T 	c #59607B",
"U 	c #A1A6B5",
"V 	c #D3D2D3",
"W 	c #D3D2D4",
"X 	c #D4D2D4",
"Y 	c #D4D2D3",
"Z 	c #A1A6B6",
"` 	c #686F86",
" .	c #989FAF",
"..	c #D0CFD0",
"+.	c #D1D0D1",
"@.	c #D1CFD0",
"#.	c #D0D0D0",
"$.	c #D1CFD1",
"%.	c #D0D0D1",
"&.	c #D1D0D0",
"*.	c #999EAE",
"=.	c #737A91",
"-.	c #9097A8",
";.	c #9197A8",
">.	c #9097A9",
",.	c #9198A8",
"'.	c #9098A8",
").	c #7B8193",
"!.	c #75788D",
"~.	c #9498A4",
". . . . . . . . . . . . . . . . . . . . . . . . . . . ",
"+ + + + + + + + + + + + + + + + + + + + + + + + + + + ",
"+ + + + + + + + + + + + + + + + + + + + + + + + + + + ",
"+ + + @ # # # # # # # # # # # # # # # # # # # @ + + + ",
"+ + + # $ % % % % % % % % % % % % % % % % % $ # + + + ",
"+ + + # % & * & & & & = & - & & - * & ; * & % # + + + ",
"+ + + # % > , , ' ) ! ! ! , ! ! ! ! ! , ' ~ % # + + + ",
"+ + + # % { ] ^ ] / / ] ( ] ] ] ( _ / ] ] : % # + + + ",
"+ + + # % < [ } } } } [ | 1 2 } } 3 4 } } 5 % # + + + ",
"+ + + # % 6 7 8 7 9 8 0 a b a c d e f 7 7 6 % # + + + ",
"+ + + # % g h h h h i a j k j a l h h h h g % # + + + ",
"+ + + # % m n n n o p b k n k b p n q r n m % # + + + ",
"s s s # % t u v w v x a j y j j z v v v w t % # s s s ",
"s s s # % A B C C C D E a b j F C G C D H I % # s s s ",
"s s s # % J K L K M N L O P Q R M K K L M S % # s s s ",
"s s s T % U V V V W X V W V V X V Y V Y V Z % T s s s ",
"s s s ` %  ...+.@.#.$.@.%.+.$.$.+.$.&.+.$.*.% ` s s s ",
"s s s =.% -.;.-.>.,.-.;.'.>.,.'.>.,.-.-.'.;.% =.s s s ",
"s s s ).$ % % % % % % % % % % % % % % % % % $ ).s s s ",
"s s s !.~.~.~.~.~.~.~.~.~.~.~.~.~.~.~.~.~.~.~.!.s s s ",
"s s s s s s s s s s s s s s s s s s s s s s s s s s s ",
"s s s s s s s s s s s s s s s s s s s s s s s s s s s ",
"s s s s s s s s s s s s s s s s s s s s s s s s s s s ",
"s s s s s s s s s s s s s s s s s s s s s s s s s s s "};
