/* XPM */
static char * stick_inactive_xpm[] = {
"27 24 63 1",
" 	c None",
".	c #A1A1A1",
"+	c #737373",
"@	c #6D6D6D",
"#	c #646464",
"$	c #585858",
"%	c #4E4E4E",
"&	c #F4F4F4",
"*	c #F3F3F3",
"=	c #EDEDED",
"-	c #E9E9E9",
";	c #ECECEC",
">	c #E5E5E5",
",	c #E6E6E6",
"'	c #E7E7E7",
")	c #DDDDDD",
"!	c #E4E4E4",
"~	c #818181",
"{	c #DEDEDE",
"]	c #D7D7D7",
"^	c #E1E1E1",
"/	c #E2E2E2",
"(	c #5F5F5F",
"_	c #6E6E6E",
":	c #717171",
"<	c #757575",
"[	c #939393",
"}	c #D0D0D0",
"|	c #DFDFDF",
"1	c #7F7F7F",
"2	c #5B5B5B",
"3	c #7C7C7C",
"4	c #C8C8C8",
"5	c #696969",
"6	c #606060",
"7	c #C1C1C1",
"8	c #DBDBDB",
"9	c #DADADA",
"0	c #707070",
"a	c #5E5E5E",
"b	c #626262",
"c	c #7A7A7A",
"d	c #BABABA",
"e	c #D8D8D8",
"f	c #797979",
"g	c #7D7D7D",
"h	c #B2B2B2",
"i	c #D6D6D6",
"j	c #D5D5D5",
"k	c #8D8D8D",
"l	c #808080",
"m	c #6A6A6A",
"n	c #ABABAB",
"o	c #D3D3D3",
"p	c #ACACAC",
"q	c #777777",
"r	c #A4A4A4",
"s	c #D1D1D1",
"t	c #828282",
"u	c #9C9C9C",
"v	c #9D9D9D",
"w	c #878787",
"x	c #747474",
"...........................",
"+++++++++++++++++++++++++++",
"+++++++++++++++++++++++++++",
"+++@###################@+++",
"+++#$%%%%%%%%%%%%%%%%%$#+++",
"+++#%&&&&&&*&*&&*&&*&&%#+++",
"+++#%=---------------;%#+++",
"+++#%>,','',',,,''',,>%#+++",
"+++#%)!!!!!~~!!!!!>!!{%#+++",
"+++#%]^/^/~((_:<[//^^]%#+++",
"+++#%}||||1(22(3|||||}%#+++",
"+++#%4)))))@225))))))4%#+++",
"666#%7899980a5bc899997%#666",
"666#%deeeee+cefbgeeeed%#666",
"666#%hijiijkijjgliijih%#666",
"666m%nooooooooooooooop%m666",
"666q%r}s}}}}ss}}s}ss}r%q666",
"666t%uvuvvuvuvvuvvuuuv%t666",
"666w$%%%%%%%%%%%%%%%%%$w666",
"666xuuuuuuuuuuuuuuuuuuux666",
"666666666666666666666666666",
"666666666666666666666666666",
"666666666666666666666666666",
"666666666666666666666666666"};
