/* XPM */
static char * stick_prelight_xpm[] = {
"27 24 122 2",
"  	c None",
". 	c #A4A4B4",
"+ 	c #757793",
"@ 	c #686C88",
"# 	c #525A76",
"$ 	c #485068",
"% 	c #41475B",
"& 	c #F2F2F5",
"* 	c #F3F2F5",
"= 	c #F2F2F4",
"- 	c #F2F1F5",
"; 	c #F3F1F4",
"> 	c #EAEAEF",
", 	c #EAE8E9",
"' 	c #E9E8EA",
") 	c #EAE7EA",
"! 	c #EAE8EA",
"~ 	c #EAEAEE",
"{ 	c #E1E3E8",
"] 	c #E7E5E7",
"^ 	c #E7E5E8",
"/ 	c #E7E6E7",
"( 	c #E8E5E7",
"_ 	c #E8E5E8",
": 	c #E2E3E8",
"< 	c #D9DBE1",
"[ 	c #E5E3E4",
"} 	c #E5E3E5",
"| 	c #40B8F7",
"1 	c #3FB8F7",
"2 	c #E4E3E4",
"3 	c #E5E4E5",
"4 	c #D9DBE2",
"5 	c #D2D4DB",
"6 	c #E2E0E2",
"7 	c #E3E1E2",
"8 	c #E2E1E2",
"9 	c #40B8F6",
"0 	c #08A9FD",
"a 	c #07A9FE",
"b 	c #20B0FB",
"c 	c #26B1FA",
"d 	c #2CB3F9",
"e 	c #5DBFF3",
"f 	c #E3E1E3",
"g 	c #E2E1E3",
"h 	c #CACCD5",
"i 	c #E0DEE0",
"j 	c #3EB7F6",
"k 	c #07A9FD",
"l 	c #00A8FF",
"m 	c #00A8FE",
"n 	c #06A9FE",
"o 	c #38B5F6",
"p 	c #DFDEE0",
"q 	c #C1C5CE",
"r 	c #DDDCDD",
"s 	c #DDDCDE",
"t 	c #1FAFFA",
"u 	c #18ADFB",
"v 	c #DEDCDE",
"w 	c #DEDCDD",
"x 	c #656781",
"y 	c #BABDC8",
"z 	c #DBDADA",
"A 	c #DBD9DB",
"B 	c #DAD9DB",
"C 	c #DADADB",
"D 	c #24B0F8",
"E 	c #06A9FD",
"F 	c #0BAAFD",
"G 	c #36B4F6",
"H 	c #DBDADB",
"I 	c #B1B5C2",
"J 	c #D9D7D9",
"K 	c #D8D7D8",
"L 	c #D9D7D8",
"M 	c #2AB1F7",
"N 	c #36B3F5",
"O 	c #35B3F5",
"P 	c #0CAAFC",
"Q 	c #3CB5F4",
"R 	c #D8D6D9",
"S 	c #D8D7D9",
"T 	c #B1B6C2",
"U 	c #A8AEBB",
"V 	c #D6D5D6",
"W 	c #D6D4D6",
"X 	c #D5D5D6",
"Y 	c #D5D4D5",
"Z 	c #58BAED",
"` 	c #D6D5D5",
" .	c #D6D4D5",
"..	c #3BB4F3",
"+.	c #41B5F2",
"@.	c #A9AEBB",
"#.	c #59607B",
"$.	c #A1A6B5",
"%.	c #D3D2D3",
"&.	c #D3D2D4",
"*.	c #D4D2D4",
"=.	c #D4D2D3",
"-.	c #A1A6B6",
";.	c #686F86",
">.	c #989FAF",
",.	c #D0CFD0",
"'.	c #D1D0D1",
").	c #D1CFD0",
"!.	c #D0D0D0",
"~.	c #D1CFD1",
"{.	c #D0D0D1",
"].	c #D1D0D0",
"^.	c #999EAE",
"/.	c #737A91",
"(.	c #9097A8",
"_.	c #9197A8",
":.	c #9097A9",
"<.	c #9198A8",
"[.	c #9098A8",
"}.	c #7B8193",
"|.	c #75788D",
"1.	c #9498A4",
". . . . . . . . . . . . . . . . . . . . . . . . . . . ",
"+ + + + + + + + + + + + + + + + + + + + + + + + + + + ",
"+ + + + + + + + + + + + + + + + + + + + + + + + + + + ",
"+ + + @ # # # # # # # # # # # # # # # # # # # @ + + + ",
"+ + + # $ % % % % % % % % % % % % % % % % % $ # + + + ",
"+ + + # % & * & & & & = & - & & - * & ; * & % # + + + ",
"+ + + # % > , , ' ) ! ! ! , ! ! ! ! ! , ' ~ % # + + + ",
"+ + + # % { ] ^ ] / / ] ( ] ] ] ( _ / ] ] : % # + + + ",
"+ + + # % < [ } } } } | 1 [ } } } 2 3 } } 4 % # + + + ",
"+ + + # % 5 6 7 6 8 9 0 a b c d e f g 6 6 5 % # + + + ",
"+ + + # % h i i i i j k l m n o p i i i i h % # + + + ",
"+ + + # % q r r r s r t m l u r s r v w r q % # + + + ",
"x x x # % y z A B A C D E u F G H A A A B y % # x x x ",
"x x x # % I J K K K L M N K O P Q R K L S T % # x x x ",
"x x x # % U V W V X Y Z `  .W ..+.V V W X @.% # x x x ",
"x x x #.% $.%.%.%.&.*.%.&.%.%.*.%.=.%.=.%.-.% #.x x x ",
"x x x ;.% >.,.'.).!.~.).{.'.~.~.'.~.].'.~.^.% ;.x x x ",
"x x x /.% (._.(.:.<.(._.[.:.<.[.:.<.(.(.[._.% /.x x x ",
"x x x }.$ % % % % % % % % % % % % % % % % % $ }.x x x ",
"x x x |.1.1.1.1.1.1.1.1.1.1.1.1.1.1.1.1.1.1.1.|.x x x ",
"x x x x x x x x x x x x x x x x x x x x x x x x x x x ",
"x x x x x x x x x x x x x x x x x x x x x x x x x x x ",
"x x x x x x x x x x x x x x x x x x x x x x x x x x x ",
"x x x x x x x x x x x x x x x x x x x x x x x x x x x "};
