/* XPM */
static char * stick_toggled_inactive_xpm[] = {
"27 24 60 1",
" 	c None",
".	c #A1A1A1",
"+	c #737373",
"@	c #6D6D6D",
"#	c #646464",
"$	c #585858",
"%	c #4E4E4E",
"&	c #F4F4F4",
"*	c #F3F3F3",
"=	c #EDEDED",
"-	c #E9E9E9",
";	c #ECECEC",
">	c #E5E5E5",
",	c #E6E6E6",
"'	c #E7E7E7",
")	c #DDDDDD",
"!	c #E4E4E4",
"~	c #818181",
"{	c #727272",
"]	c #DEDEDE",
"^	c #D7D7D7",
"/	c #E1E1E1",
"(	c #E2E2E2",
"_	c #7D7D7D",
":	c #5F5F5F",
"<	c #5B5B5B",
"[	c #7C7C7C",
"}	c #D0D0D0",
"|	c #DFDFDF",
"1	c #808080",
"2	c #5E5E5E",
"3	c #696969",
"4	c #7F7F7F",
"5	c #C8C8C8",
"6	c #707070",
"7	c #606060",
"8	c #C1C1C1",
"9	c #DBDBDB",
"0	c #DADADA",
"a	c #7E7E7E",
"b	c #BABABA",
"c	c #D8D8D8",
"d	c #7A7A7A",
"e	c #797979",
"f	c #B2B2B2",
"g	c #D6D6D6",
"h	c #D5D5D5",
"i	c #6F6F6F",
"j	c #6A6A6A",
"k	c #ABABAB",
"l	c #D3D3D3",
"m	c #ACACAC",
"n	c #777777",
"o	c #A4A4A4",
"p	c #D1D1D1",
"q	c #828282",
"r	c #9C9C9C",
"s	c #9D9D9D",
"t	c #878787",
"u	c #747474",
"...........................",
"+++++++++++++++++++++++++++",
"+++++++++++++++++++++++++++",
"+++@###################@+++",
"+++#$%%%%%%%%%%%%%%%%%$#+++",
"+++#%&&&&&&*&*&&*&&*&&%#+++",
"+++#%=---------------;%#+++",
"+++#%>,','',',,,''',,>%#+++",
"+++#%)!!!!!!~{~!!!>!!]%#+++",
"+++#%^/(/((_:<:[(((//^%#+++",
"+++#%}||||1:232:4||||}%#+++",
"+++#%5))))6<3)3<6))))5%#+++",
"777#%89000a22322a00008%#777",
"777#%bcccccd2<2ecccccb%#777",
"777#%fghgghh_i[gggghgf%#777",
"777j%klllllllllllllllm%j777",
"777n%o}p}}}}pp}}p}pp}o%n777",
"777q%rsrssrsrssrssrrrs%q777",
"777t$%%%%%%%%%%%%%%%%%$t777",
"777urrrrrrrrrrrrrrrrrrru777",
"777777777777777777777777777",
"777777777777777777777777777",
"777777777777777777777777777",
"777777777777777777777777777"};
