/* XPM */
static char * stick_toggled_prelight_xpm[] = {
"27 24 112 2",
"  	c None",
". 	c #A4A4B4",
"+ 	c #757793",
"@ 	c #686C88",
"# 	c #525A76",
"$ 	c #485068",
"% 	c #41475B",
"& 	c #F2F2F5",
"* 	c #F3F2F5",
"= 	c #F2F2F4",
"- 	c #F2F1F5",
"; 	c #F3F1F4",
"> 	c #EAEAEF",
", 	c #EAE8E9",
"' 	c #E9E8EA",
") 	c #EAE7EA",
"! 	c #EAE8EA",
"~ 	c #EAEAEE",
"{ 	c #E1E3E8",
"] 	c #E7E5E7",
"^ 	c #E7E5E8",
"/ 	c #E7E6E7",
"( 	c #E8E5E7",
"_ 	c #E8E5E8",
": 	c #E2E3E8",
"< 	c #D9DBE1",
"[ 	c #E5E3E4",
"} 	c #E5E3E5",
"| 	c #40B8F7",
"1 	c #26B1FA",
"2 	c #3FB8F7",
"3 	c #E4E3E4",
"4 	c #E5E4E5",
"5 	c #D9DBE2",
"6 	c #D2D4DB",
"7 	c #E2E0E2",
"8 	c #E3E1E2",
"9 	c #E2E1E2",
"0 	c #39B6F7",
"a 	c #07A9FE",
"b 	c #00A8FE",
"c 	c #38B6F7",
"d 	c #E2E0E3",
"e 	c #E3E1E3",
"f 	c #E2E1E3",
"g 	c #CACCD5",
"h 	c #E0DEE0",
"i 	c #3EB7F6",
"j 	c #07A9FD",
"k 	c #06A9FE",
"l 	c #18ADFB",
"m 	c #C1C5CE",
"n 	c #DDDCDD",
"o 	c #DDDCDE",
"p 	c #25B0F9",
"q 	c #DEDCDE",
"r 	c #DEDCDD",
"s 	c #656781",
"t 	c #BABDC8",
"u 	c #DBDADA",
"v 	c #DBD9DB",
"w 	c #DAD9DB",
"x 	c #3CB5F4",
"y 	c #06A9FD",
"z 	c #05A9FE",
"A 	c #3CB5F5",
"B 	c #B1B5C2",
"C 	c #D9D7D9",
"D 	c #D8D7D8",
"E 	c #D9D7D8",
"F 	c #36B3F5",
"G 	c #05A9FD",
"H 	c #35B3F5",
"I 	c #D8D6D9",
"J 	c #D8D7D9",
"K 	c #B1B6C2",
"L 	c #A8AEBB",
"M 	c #D6D5D6",
"N 	c #D6D4D6",
"O 	c #D5D5D6",
"P 	c #D5D4D5",
"Q 	c #3BB4F3",
"R 	c #23AFF8",
"S 	c #3AB4F3",
"T 	c #D6D5D5",
"U 	c #A9AEBB",
"V 	c #59607B",
"W 	c #A1A6B5",
"X 	c #D3D2D3",
"Y 	c #D3D2D4",
"Z 	c #D4D2D4",
"` 	c #D4D2D3",
" .	c #A1A6B6",
"..	c #686F86",
"+.	c #989FAF",
"@.	c #D0CFD0",
"#.	c #D1D0D1",
"$.	c #D1CFD0",
"%.	c #D0D0D0",
"&.	c #D1CFD1",
"*.	c #D0D0D1",
"=.	c #D1D0D0",
"-.	c #999EAE",
";.	c #737A91",
">.	c #9097A8",
",.	c #9197A8",
"'.	c #9097A9",
").	c #9198A8",
"!.	c #9098A8",
"~.	c #7B8193",
"{.	c #75788D",
"].	c #9498A4",
". . . . . . . . . . . . . . . . . . . . . . . . . . . ",
"+ + + + + + + + + + + + + + + + + + + + + + + + + + + ",
"+ + + + + + + + + + + + + + + + + + + + + + + + + + + ",
"+ + + @ # # # # # # # # # # # # # # # # # # # @ + + + ",
"+ + + # $ % % % % % % % % % % % % % % % % % $ # + + + ",
"+ + + # % & * & & & & = & - & & - * & ; * & % # + + + ",
"+ + + # % > , , ' ) ! ! ! , ! ! ! ! ! , ' ~ % # + + + ",
"+ + + # % { ] ^ ] / / ] ( ] ] ] ( _ / ] ] : % # + + + ",
"+ + + # % < [ } } } } [ | 1 2 } } 3 4 } } 5 % # + + + ",
"+ + + # % 6 7 8 7 9 8 0 a b a c d e f 7 7 6 % # + + + ",
"+ + + # % g h h h h i j k l k j i h h h h g % # + + + ",
"+ + + # % m n n n o p b l n l b p n q r n m % # + + + ",
"s s s # % t u v w v x y y l z k A v v v w t % # s s s ",
"s s s # % B C D D D E F y b G H D I D E J K % # s s s ",
"s s s # % L M N M O P N Q R S T O M M N O U % # s s s ",
"s s s V % W X X X Y Z X Y X X Z X ` X ` X  .% V s s s ",
"s s s ..% +.@.#.$.%.&.$.*.#.&.&.#.&.=.#.&.-.% ..s s s ",
"s s s ;.% >.,.>.'.).>.,.!.'.).!.'.).>.>.!.,.% ;.s s s ",
"s s s ~.$ % % % % % % % % % % % % % % % % % $ ~.s s s ",
"s s s {.].].].].].].].].].].].].].].].].].].].{.s s s ",
"s s s s s s s s s s s s s s s s s s s s s s s s s s s ",
"s s s s s s s s s s s s s s s s s s s s s s s s s s s ",
"s s s s s s s s s s s s s s s s s s s s s s s s s s s ",
"s s s s s s s s s s s s s s s s s s s s s s s s s s s "};
