/* XPM */
static char * stick_pressed_xpm[] = {
"27 24 115 2",
"  	c None",
". 	c #A4A4B4",
"+ 	c #757793",
"@ 	c #686C88",
"# 	c #525A76",
"$ 	c #485068",
"% 	c #41475B",
"& 	c #969499",
"* 	c #BDBCC3",
"= 	c #BEBDC4",
"- 	c #C0BEC6",
"; 	c #C0BFC6",
"> 	c #C2C0C7",
", 	c #C2C1C7",
"' 	c #C3C2C7",
") 	c #C4C2C8",
"! 	c #C3C2C8",
"~ 	c #C3C1C7",
"{ 	c #C1C1C7",
"] 	c #BFBEC5",
"^ 	c #BEBDC5",
"/ 	c #C0BEC5",
"( 	c #C1C0C7",
"_ 	c #C4C3C8",
": 	c #C5C3C9",
"< 	c #C6C4C9",
"[ 	c #C6C4CA",
"} 	c #C6C3CA",
"| 	c #C5C3C8",
"1 	c #C1BFC6",
"2 	c #C0BFC5",
"3 	c #C1C0C6",
"4 	c #C2C2C7",
"5 	c #C6C5CA",
"6 	c #C7C5CA",
"7 	c #C8C5CA",
"8 	c #C7C6CB",
"9 	c #C4C2C9",
"0 	c #BFBFC5",
"a 	c #C3C1C8",
"b 	c #C7C5CB",
"c 	c #C8C6CB",
"d 	c #39B0F0",
"e 	c #37B0F0",
"f 	c #CAC7CD",
"g 	c #C9C7CC",
"h 	c #C3C0C7",
"i 	c #C1C0C5",
"j 	c #C5C4CA",
"k 	c #C9C6CC",
"l 	c #39B1F0",
"m 	c #07A9FD",
"n 	c #06A9FD",
"o 	c #1CACF7",
"p 	c #22ADF6",
"q 	c #27AEF5",
"r 	c #53B4EA",
"s 	c #C9C6CB",
"t 	c #C4C1C8",
"u 	c #CAC8CC",
"v 	c #38B1F1",
"w 	c #00A8FF",
"x 	c #00A8FE",
"y 	c #33B0F2",
"z 	c #CBC9CE",
"A 	c #C6C5C9",
"B 	c #C5C2C8",
"C 	c #656781",
"D 	c #CAC7CC",
"E 	c #CCC8CD",
"F 	c #CDCACF",
"G 	c #1DADF8",
"H 	c #16ACF9",
"I 	c #CECBCF",
"J 	c #CBC8CD",
"K 	c #CAC8CD",
"L 	c #CCC9CE",
"M 	c #23AEF7",
"N 	c #17ACFA",
"O 	c #0BAAFC",
"P 	c #33B1F3",
"Q 	c #CFCBD0",
"R 	c #28AFF5",
"S 	c #34B1F3",
"T 	c #D4CFD3",
"U 	c #0CAAFC",
"V 	c #39B1F1",
"W 	c #C5C4C9",
"X 	c #59607B",
"Y 	c #56B7EB",
"Z 	c #D2CED2",
"` 	c #D3CFD2",
" .	c #D1CFD2",
"..	c #39B2F1",
"+.	c #3FB2F0",
"@.	c #CCCACE",
"#.	c #C5C3CA",
"$.	c #686F86",
"%.	c #C6C3C9",
"&.	c #C8C6CA",
"*.	c #CDCBCF",
"=.	c #CFCCD0",
"-.	c #D0CDD1",
";.	c #D1CDD1",
">.	c #CDCACE",
",.	c #CBC9CD",
"'.	c #737A91",
").	c #C7C4CB",
"!.	c #CCC9CD",
"~.	c #CFCCCF",
"{.	c #CECBD0",
"].	c #C7C4CA",
"^.	c #7B8193",
"/.	c #75788D",
"(.	c #9498A4",
". . . . . . . . . . . . . . . . . . . . . . . . . . . ",
"+ + + + + + + + + + + + + + + + + + + + + + + + + + + ",
"+ + + + + + + + + + + + + + + + + + + + + + + + + + + ",
"+ + + @ # # # # # # # # # # # # # # # # # # # @ + + + ",
"+ + + # $ % % % % % % % % % % % % % % % % % $ # + + + ",
"+ + + # % & & & & & & & & & & & & & & & & & % # + + + ",
"+ + + # % * = - ; > , ' ) ! ! ~ ~ { ; ] = * % # + + + ",
"+ + + # % ^ / ( ~ ! _ : < [ } | ) ) > 1 ] = % # + + + ",
"+ + + # % 2 3 4 ) [ 5 6 7 8 8 6 [ : 9 ~ 1 0 % # + + + ",
"+ + + # % 3 a 9 < b c d e f g g c 6 : _ h i % # + + + ",
"+ + + # % , ! j 6 k l m n o p q r s 6 < t > % # + + + ",
"+ + + # % a : 6 c u v n w x n y z f c A B , % # + + + ",
"C C C # % ) : b D E F G x w H I F J g b : a % # C C C ",
"C C C # % ! [ c K L I M n N O P I L f 8 [ ) % # C C C ",
"C C C # % ! [ c u F Q R S T P U V L D c W ! % # C C C ",
"C C C X % ) [ c K L I Y Z `  ...+.@.D b #.a % X C C C ",
"C C C $.% ) %.&.D L *.=.-.;.-.=.>.,.g 6 : a % $.C C C ",
"C C C '.% 4 : ).s K !.*.~.{.{.I L u c ].: , % '.C C C ",
"C C C ^.$ % % % % % % % % % % % % % % % % % $ ^.C C C ",
"C C C /.(.(.(.(.(.(.(.(.(.(.(.(.(.(.(.(.(.(.(./.C C C ",
"C C C C C C C C C C C C C C C C C C C C C C C C C C C ",
"C C C C C C C C C C C C C C C C C C C C C C C C C C C ",
"C C C C C C C C C C C C C C C C C C C C C C C C C C C ",
"C C C C C C C C C C C C C C C C C C C C C C C C C C C "};
