/* XPM */
static char * stick_toggled_pressed_xpm[] = {
"27 24 105 2",
"  	c None",
". 	c #A4A4B4",
"+ 	c #757793",
"@ 	c #686C88",
"# 	c #525A76",
"$ 	c #485068",
"% 	c #41475B",
"& 	c #969499",
"* 	c #BDBCC3",
"= 	c #BEBDC4",
"- 	c #C0BEC6",
"; 	c #C0BFC6",
"> 	c #C2C0C7",
", 	c #C2C1C7",
"' 	c #C3C2C7",
") 	c #C4C2C8",
"! 	c #C3C2C8",
"~ 	c #C3C1C7",
"{ 	c #C1C1C7",
"] 	c #BFBEC5",
"^ 	c #BEBDC5",
"/ 	c #C0BEC5",
"( 	c #C1C0C7",
"_ 	c #C4C3C8",
": 	c #C5C3C9",
"< 	c #C6C4C9",
"[ 	c #C6C4CA",
"} 	c #C6C3CA",
"| 	c #C5C3C8",
"1 	c #C1BFC6",
"2 	c #C0BFC5",
"3 	c #C1C0C6",
"4 	c #C2C2C7",
"5 	c #C6C5CA",
"6 	c #C7C5CA",
"7 	c #C8C5CA",
"8 	c #C7C6CB",
"9 	c #C4C2C9",
"0 	c #BFBFC5",
"a 	c #C3C1C8",
"b 	c #C7C5CB",
"c 	c #C8C6CB",
"d 	c #CAC7CC",
"e 	c #38B0F0",
"f 	c #22ADF6",
"g 	c #37B0F0",
"h 	c #C9C7CC",
"i 	c #C3C0C7",
"j 	c #C1C0C5",
"k 	c #C5C4CA",
"l 	c #C9C6CC",
"m 	c #CAC8CD",
"n 	c #33B0F2",
"o 	c #06A9FD",
"p 	c #00A8FE",
"q 	c #32B0F2",
"r 	c #CAC7CD",
"s 	c #C9C6CB",
"t 	c #C4C1C8",
"u 	c #CAC8CC",
"v 	c #39B1F0",
"w 	c #05A8FD",
"x 	c #16ABF9",
"y 	c #38B1F1",
"z 	c #C6C5C9",
"A 	c #C5C2C8",
"B 	c #656781",
"C 	c #CCC8CD",
"D 	c #D0CDD0",
"E 	c #16ACF9",
"F 	c #CBC8CD",
"G 	c #CCC9CE",
"H 	c #39B1F1",
"I 	c #05A9FD",
"J 	c #17ACFA",
"K 	c #CDCACF",
"L 	c #CFCBD0",
"M 	c #34B1F3",
"N 	c #33B1F3",
"O 	c #CECBCF",
"P 	c #C5C4C9",
"Q 	c #59607B",
"R 	c #D1CDD1",
"S 	c #3AB2F2",
"T 	c #22AEF7",
"U 	c #39B2F2",
"V 	c #CCCACE",
"W 	c #C5C3CA",
"X 	c #686F86",
"Y 	c #C6C3C9",
"Z 	c #C8C6CA",
"` 	c #CDCBCF",
" .	c #CFCCD0",
"..	c #D0CDD1",
"+.	c #CDCACE",
"@.	c #CBC9CD",
"#.	c #737A91",
"$.	c #C7C4CB",
"%.	c #CCC9CD",
"&.	c #CFCCCF",
"*.	c #CECBD0",
"=.	c #C7C4CA",
"-.	c #7B8193",
";.	c #75788D",
">.	c #9498A4",
". . . . . . . . . . . . . . . . . . . . . . . . . . . ",
"+ + + + + + + + + + + + + + + + + + + + + + + + + + + ",
"+ + + + + + + + + + + + + + + + + + + + + + + + + + + ",
"+ + + @ # # # # # # # # # # # # # # # # # # # @ + + + ",
"+ + + # $ % % % % % % % % % % % % % % % % % $ # + + + ",
"+ + + # % & & & & & & & & & & & & & & & & & % # + + + ",
"+ + + # % * = - ; > , ' ) ! ! ~ ~ { ; ] = * % # + + + ",
"+ + + # % ^ / ( ~ ! _ : < [ } | ) ) > 1 ] = % # + + + ",
"+ + + # % 2 3 4 ) [ 5 6 7 8 8 6 [ : 9 ~ 1 0 % # + + + ",
"+ + + # % 3 a 9 < b c d e f g h c 6 : _ i j % # + + + ",
"+ + + # % , ! k 6 l m n o p o q r s 6 < t > % # + + + ",
"+ + + # % a : 6 c u v o w x w o y r c z A , % # + + + ",
"B B B # % ) : b d C f p x D E p f F h b : a % # B B B ",
"B B B # % ! [ c m G H o I J I I y G r 8 [ ) % # B B B ",
"B B B # % ! [ c u K L M o p I N O G d c P ! % # B B B ",
"B B B Q % ) [ c m G O R S T U D O V d b W a % Q B B B ",
"B B B X % ) Y Z d G `  ...R .. .+.@.h 6 : a % X B B B ",
"B B B #.% 4 : $.s m %.` &.*.*.O G u c =.: , % #.B B B ",
"B B B -.$ % % % % % % % % % % % % % % % % % $ -.B B B ",
"B B B ;.>.>.>.>.>.>.>.>.>.>.>.>.>.>.>.>.>.>.>.;.B B B ",
"B B B B B B B B B B B B B B B B B B B B B B B B B B B ",
"B B B B B B B B B B B B B B B B B B B B B B B B B B B ",
"B B B B B B B B B B B B B B B B B B B B B B B B B B B ",
"B B B B B B B B B B B B B B B B B B B B B B B B B B B "};
