/* XPM */
static char * title_3_active_xpm[] = {
"4 25 4 1",
".	c #41475B",
"+	c #A4A4B4",
"@	c #757793",
"#	c #656781",
"....",
"++++",
"@@@@",
"@@@@",
"@@@@",
"@@@@",
"@@@@",
"@@@@",
"@@@@",
"@@@@",
"@@@@",
"@@@@",
"@@@@",
"####",
"####",
"####",
"####",
"####",
"####",
"####",
"####",
"####",
"####",
"####",
"####"};
