/* XPM */
static char * top_left_inactive_xpm[] = {
"4 25 4 1",
".	c #363636",
"+	c #A1A1A1",
"@	c #737373",
"#	c #606060",
"....",
".+++",
".+@@",
".+@@",
".+@@",
".+@@",
".+@@",
".+@@",
".+@@",
".+@@",
".+@@",
".+@@",
".+@@",
".+##",
".+##",
".+##",
".+##",
".+##",
".+##",
".+##",
".+##",
".+##",
".+##",
".+##",
".+##"};
